NotoSans-CondensedMedium.ufo
<glyph name="percent" format="2">
  <advance width="1360"/>
  <unicode hex="0025"/>
  <outline>
    <contour>
      <point x="319" y="1483" type="curve" smooth="yes"/>
      <point x="164" y="1483"/>
      <point x="82" y="1321"/>
      <point x="82" y="1026" type="curve" smooth="yes"/>
      <point x="82" y="735"/>
      <point x="166" y="565"/>
      <point x="319" y="565" type="curve" smooth="yes"/>
      <point x="471" y="565"/>
      <point x="559" y="733"/>
      <point x="559" y="1026" type="curve" smooth="yes"/>
      <point x="559" y="1319"/>
      <point x="471" y="1483"/>
    </contour>
    <contour>
      <point x="317" y="1360" type="curve" smooth="yes"/>
      <point x="385" y="1360"/>
      <point x="420" y="1251"/>
      <point x="420" y="1026" type="curve" smooth="yes"/>
      <point x="420" y="799"/>
      <point x="389" y="690"/>
      <point x="319" y="690" type="curve" smooth="yes"/>
      <point x="246" y="690"/>
      <point x="219" y="801"/>
      <point x="219" y="1026" type="curve" smooth="yes"/>
      <point x="219" y="1249"/>
      <point x="246" y="1360"/>
    </contour>
    <contour>
      <point x="1001" y="1462" type="line"/>
      <point x="866" y="1462" type="line"/>
      <point x="354" y="0" type="line"/>
      <point x="489" y="0" type="line"/>
    </contour>
    <contour>
      <point x="1040" y="899" type="curve" smooth="yes"/>
      <point x="887" y="899"/>
      <point x="803" y="743"/>
      <point x="803" y="442" type="curve" smooth="yes"/>
      <point x="803" y="154"/>
      <point x="887" y="-18"/>
      <point x="1040" y="-18" type="curve" smooth="yes"/>
      <point x="1192" y="-18"/>
      <point x="1280" y="145"/>
      <point x="1280" y="442" type="curve" smooth="yes"/>
      <point x="1280" y="735"/>
      <point x="1192" y="899"/>
    </contour>
    <contour>
      <point x="1038" y="776" type="curve" smooth="yes"/>
      <point x="1106" y="776"/>
      <point x="1139" y="659"/>
      <point x="1139" y="442" type="curve" smooth="yes"/>
      <point x="1139" y="221"/>
      <point x="1112" y="106"/>
      <point x="1040" y="106" type="curve" smooth="yes"/>
      <point x="967" y="106"/>
      <point x="940" y="217"/>
      <point x="940" y="442" type="curve" smooth="yes"/>
      <point x="940" y="666"/>
      <point x="967" y="776"/>
    </contour>
  </outline>
</glyph>
<glyph name="parenright" format="2">
  <advance width="596"/>
  <unicode hex="0029"/>
  <outline>
    <contour>
      <point x="496" y="567" type="curve" smooth="yes"/>
      <point x="496" y="905"/>
      <point x="393" y="1237"/>
      <point x="205" y="1475" type="curve"/>
      <point x="59" y="1475" type="line"/>
      <point x="236" y="1208"/>
      <point x="328" y="899"/>
      <point x="328" y="569" type="curve" smooth="yes"/>
      <point x="328" y="252"/>
      <point x="233" y="-68"/>
      <point x="61" y="-324" type="curve"/>
      <point x="205" y="-324" type="line"/>
      <point x="393" y="-92"/>
      <point x="496" y="227"/>
    </contour>
  </outline>
</glyph>
<glyph name="one" format="2">
  <advance width="879"/>
  <unicode hex="0031"/>
  <outline>
    <contour>
      <point x="602" y="0" type="line"/>
      <point x="602" y="1462" type="line"/>
      <point x="455" y="1462" type="line"/>
      <point x="127" y="1141" type="line"/>
      <point x="223" y="1036" type="line"/>
      <point x="350" y="1159" type="line"/>
      <point x="395" y="1204"/>
      <point x="424" y="1237"/>
      <point x="440" y="1260" type="curve"/>
      <point x="436" y="1167"/>
      <point x="432" y="1073"/>
      <point x="432" y="985" type="curve" smooth="yes"/>
      <point x="432" y="0" type="line"/>
    </contour>
  </outline>
</glyph>
<glyph name="Q" format="2">
  <advance width="1126"/>
  <unicode hex="0051"/>
  <anchor x="563" y="-348" name="bottom"/>
  <anchor x="563" y="1462" name="top"/>
  <anchor x="1085" y="1462" name="topright"/>
  <outline>
    <contour>
      <point x="1026" y="733" type="curve" smooth="yes"/>
      <point x="1026" y="1229"/>
      <point x="862" y="1483"/>
      <point x="565" y="1483" type="curve" smooth="yes"/>
      <point x="258" y="1483"/>
      <point x="102" y="1235"/>
      <point x="102" y="735" type="curve" smooth="yes"/>
      <point x="102" y="330"/>
      <point x="223" y="-20"/>
      <point x="555" y="-20" type="curve"/>
      <point x="567" y="-20"/>
      <point x="586" y="-18"/>
      <point x="594" y="-16" type="curve"/>
      <point x="776" y="-348" type="line"/>
      <point x="981" y="-348" type="line"/>
      <point x="756" y="25" type="line"/>
      <point x="930" y="117"/>
      <point x="1026" y="360"/>
    </contour>
    <contour>
      <point x="281" y="733" type="curve" smooth="yes"/>
      <point x="281" y="1124"/>
      <point x="375" y="1327"/>
      <point x="565" y="1327" type="curve" smooth="yes"/>
      <point x="750" y="1327"/>
      <point x="844" y="1128"/>
      <point x="844" y="733" type="curve" smooth="yes"/>
      <point x="844" y="334"/>
      <point x="748" y="137"/>
      <point x="563" y="137" type="curve" smooth="yes"/>
      <point x="379" y="137"/>
      <point x="281" y="340"/>
    </contour>
  </outline>
</glyph>
<glyph name="e" format="2">
  <advance width="856"/>
  <unicode hex="0065"/>
  <anchor x="471" y="0" name="bottom"/>
  <anchor x="434" y="1100" name="top"/>
  <anchor x="815" y="1100" name="topright"/>
  <outline>
    <contour>
      <point x="440" y="1118" type="curve" smooth="yes"/>
      <point x="209" y="1118"/>
      <point x="88" y="915"/>
      <point x="88" y="543" type="curve" smooth="yes"/>
      <point x="88" y="223"/>
      <point x="197" y="-20"/>
      <point x="477" y="-20" type="curve" smooth="yes"/>
      <point x="571" y="-20"/>
      <point x="655" y="2"/>
      <point x="733" y="49" type="curve"/>
      <point x="733" y="197" type="line"/>
      <point x="651" y="143"/>
      <point x="575" y="121"/>
      <point x="496" y="121" type="curve" smooth="yes"/>
      <point x="334" y="121"/>
      <point x="256" y="252"/>
      <point x="252" y="518" type="curve"/>
      <point x="774" y="518" type="line"/>
      <point x="774" y="633" type="line" smooth="yes"/>
      <point x="774" y="905"/>
      <point x="666" y="1118"/>
    </contour>
    <contour>
      <point x="440" y="983" type="curve" smooth="yes"/>
      <point x="563" y="983"/>
      <point x="618" y="829"/>
      <point x="618" y="649" type="curve"/>
      <point x="254" y="649" type="line"/>
      <point x="264" y="877"/>
      <point x="328" y="983"/>
    </contour>
  </outline>
</glyph>
<glyph name="g" format="2">
  <advance width="837"/>
  <unicode hex="0067"/>
  <anchor x="399" y="-492" name="bottom"/>
  <anchor x="388" y="1100" name="top"/>
  <anchor x="815" y="1100" name="topright"/>
  <outline>
    <contour>
      <point x="349" y="-492" type="curve"/>
      <point x="626" y="-492"/>
      <point x="778" y="-358"/>
      <point x="778" y="-112" type="curve" smooth="yes"/>
      <point x="778" y="81"/>
      <point x="685" y="184"/>
      <point x="516" y="184" type="curve" smooth="yes"/>
      <point x="383" y="184" type="line" smooth="yes"/>
      <point x="315" y="184"/>
      <point x="267" y="199"/>
      <point x="267" y="268" type="curve" smooth="yes"/>
      <point x="267" y="320"/>
      <point x="282" y="365"/>
      <point x="312" y="398" type="curve"/>
      <point x="335" y="393"/>
      <point x="356" y="390"/>
      <point x="380" y="390" type="curve" smooth="yes"/>
      <point x="578" y="390"/>
      <point x="697" y="529"/>
      <point x="697" y="748" type="curve" smooth="yes"/>
      <point x="697" y="835"/>
      <point x="683" y="910"/>
      <point x="659" y="958" type="curve"/>
      <point x="787" y="986" type="line"/>
      <point x="787" y="1100" type="line"/>
      <point x="517" y="1100" type="line"/>
      <point x="496" y="1112"/>
      <point x="431" y="1120"/>
      <point x="390" y="1120" type="curve" smooth="yes"/>
      <point x="191" y="1120"/>
      <point x="79" y="984"/>
      <point x="79" y="744" type="curve" smooth="yes"/>
      <point x="79" y="597"/>
      <point x="132" y="478"/>
      <point x="212" y="431" type="curve"/>
      <point x="148" y="375"/>
      <point x="114" y="321"/>
      <point x="114" y="239" type="curve" smooth="yes"/>
      <point x="114" y="169"/>
      <point x="150" y="111"/>
      <point x="192" y="86" type="curve"/>
      <point x="81" y="51"/>
      <point x="20" y="-50"/>
      <point x="20" y="-185" type="curve" smooth="yes"/>
      <point x="20" y="-380"/>
      <point x="136" y="-492"/>
    </contour>
    <contour>
      <point x="356" y="-352" type="curve"/>
      <point x="246" y="-352"/>
      <point x="183" y="-292"/>
      <point x="183" y="-179" type="curve" smooth="yes"/>
      <point x="183" y="-53"/>
      <point x="243" y="18"/>
      <point x="329" y="18" type="curve" smooth="yes"/>
      <point x="447" y="18" type="line" smooth="yes"/>
      <point x="547" y="18"/>
      <point x="612" y="3"/>
      <point x="612" y="-132" type="curve" smooth="yes"/>
      <point x="612" y="-267"/>
      <point x="520" y="-352"/>
    </contour>
    <contour>
      <point x="389" y="520" type="curve"/>
      <point x="301" y="520"/>
      <point x="256" y="599"/>
      <point x="256" y="746" type="curve" smooth="yes"/>
      <point x="256" y="905"/>
      <point x="301" y="988"/>
      <point x="388" y="988" type="curve" smooth="yes"/>
      <point x="476" y="988"/>
      <point x="521" y="908"/>
      <point x="521" y="749" type="curve" smooth="yes"/>
      <point x="521" y="598"/>
      <point x="479" y="520"/>
    </contour>
  </outline>
</glyph>
<glyph name="kgreenlandic" format="2">
  <advance width="817"/>
  <unicode hex="0138"/>
  <anchor x="410" y="0" name="bottom"/>
  <anchor x="410" y="1100" name="top"/>
  <outline>
    <contour>
      <point x="791" y="1100" type="line"/>
      <point x="612" y="1100" type="line"/>
      <point x="352" y="670" type="line" smooth="yes"/>
      <point x="336" y="639"/>
      <point x="315" y="602"/>
      <point x="297" y="565" type="curve"/>
      <point x="289" y="565" type="line"/>
      <point x="295" y="631"/>
      <point x="299" y="702"/>
      <point x="299" y="784" type="curve" smooth="yes"/>
      <point x="299" y="1100" type="line"/>
      <point x="133" y="1100" type="line"/>
      <point x="133" y="0" type="line"/>
      <point x="299" y="0" type="line"/>
      <point x="299" y="408" type="line"/>
      <point x="412" y="543" type="line"/>
      <point x="631" y="0" type="line"/>
      <point x="809" y="0" type="line"/>
      <point x="524" y="676" type="line"/>
    </contour>
  </outline>
</glyph>
<glyph name="uni018E" format="2">
  <advance width="823"/>
  <unicode hex="018E"/>
  <anchor x="395" y="0" name="bottom"/>
  <anchor x="385" y="1462" name="top"/>
  <anchor x="725" y="1462" name="topright"/>
  <outline>
    <contour>
      <point x="92" y="0" type="line"/>
      <point x="674" y="0" type="line"/>
      <point x="674" y="1462" type="line"/>
      <point x="92" y="1462" type="line"/>
      <point x="92" y="1309" type="line"/>
      <point x="502" y="1309" type="line"/>
      <point x="502" y="840" type="line"/>
      <point x="117" y="840" type="line"/>
      <point x="117" y="686" type="line"/>
      <point x="502" y="686" type="line"/>
      <point x="502" y="156" type="line"/>
      <point x="92" y="156" type="line"/>
    </contour>
  </outline>
</glyph>
<glyph name="uni0194" format="2">
  <advance width="903"/>
  <unicode hex="0194"/>
  <anchor x="453" y="-492" name="bottom"/>
  <anchor x="453" y="1462" name="top"/>
  <outline>
    <contour>
      <point x="451" y="-492" type="curve" smooth="yes"/>
      <point x="608" y="-492"/>
      <point x="674" y="-387"/>
      <point x="674" y="-209" type="curve" smooth="yes"/>
      <point x="674" y="-78"/>
      <point x="618" y="78"/>
      <point x="551" y="254" type="curve"/>
      <point x="903" y="1462" type="line"/>
      <point x="723" y="1462" type="line"/>
      <point x="508" y="686" type="line" smooth="yes"/>
      <point x="485" y="606"/>
      <point x="463" y="485"/>
      <point x="451" y="393" type="curve"/>
      <point x="434" y="492"/>
      <point x="410" y="623"/>
      <point x="387" y="709" type="curve" smooth="yes"/>
      <point x="180" y="1462" type="line"/>
      <point x="0" y="1462" type="line"/>
      <point x="350" y="250" type="line"/>
      <point x="291" y="94"/>
      <point x="231" y="-74"/>
      <point x="231" y="-211" type="curve" smooth="yes"/>
      <point x="231" y="-391"/>
      <point x="299" y="-492"/>
    </contour>
    <contour>
      <point x="455" y="-362" type="curve" smooth="yes"/>
      <point x="414" y="-362"/>
      <point x="387" y="-317"/>
      <point x="387" y="-213" type="curve" smooth="yes"/>
      <point x="387" y="-131"/>
      <point x="410" y="-23"/>
      <point x="455" y="111" type="curve"/>
      <point x="496" y="-18"/>
      <point x="520" y="-131"/>
      <point x="520" y="-219" type="curve" smooth="yes"/>
      <point x="520" y="-322"/>
      <point x="496" y="-362"/>
    </contour>
  </outline>
</glyph>
<glyph name="uni0197" format="2">
  <advance width="580"/>
  <unicode hex="0197"/>
  <anchor x="291" y="0" name="bottom"/>
  <anchor x="291" y="1462" name="top"/>
  <outline>
    <contour>
      <point x="508" y="1462" type="line"/>
      <point x="70" y="1462" type="line"/>
      <point x="70" y="1364" type="line"/>
      <point x="203" y="1329" type="line"/>
      <point x="203" y="836" type="line"/>
      <point x="41" y="836" type="line"/>
      <point x="41" y="696" type="line"/>
      <point x="203" y="696" type="line"/>
      <point x="203" y="133" type="line"/>
      <point x="70" y="98" type="line"/>
      <point x="70" y="0" type="line"/>
      <point x="508" y="0" type="line"/>
      <point x="508" y="98" type="line"/>
      <point x="375" y="133" type="line"/>
      <point x="375" y="696" type="line"/>
      <point x="537" y="696" type="line"/>
      <point x="537" y="836" type="line"/>
      <point x="375" y="836" type="line"/>
      <point x="375" y="1329" type="line"/>
      <point x="508" y="1364" type="line"/>
    </contour>
  </outline>
</glyph>
<glyph name="uni01B1" format="2">
  <advance width="1141"/>
  <unicode hex="01B1"/>
  <anchor x="571" y="0" name="bottom"/>
  <anchor x="571" y="1462" name="top"/>
  <outline>
    <contour>
      <point x="569" y="135" type="curve" smooth="yes"/>
      <point x="365" y="135"/>
      <point x="285" y="367"/>
      <point x="285" y="649" type="curve" smooth="yes"/>
      <point x="285" y="952"/>
      <point x="326" y="1124"/>
      <point x="494" y="1325" type="curve"/>
      <point x="494" y="1462" type="line"/>
      <point x="57" y="1462" type="line"/>
      <point x="57" y="1307" type="line"/>
      <point x="324" y="1307" type="line"/>
      <point x="180" y="1157"/>
      <point x="109" y="930"/>
      <point x="109" y="635" type="curve" smooth="yes"/>
      <point x="109" y="268"/>
      <point x="264" y="-20"/>
      <point x="569" y="-20" type="curve" smooth="yes"/>
      <point x="862" y="-20"/>
      <point x="1032" y="215"/>
      <point x="1032" y="637" type="curve" smooth="yes"/>
      <point x="1032" y="893"/>
      <point x="965" y="1155"/>
      <point x="817" y="1307" type="curve"/>
      <point x="1081" y="1307" type="line"/>
      <point x="1081" y="1462" type="line"/>
      <point x="647" y="1462" type="line"/>
      <point x="647" y="1325" type="line"/>
      <point x="805" y="1147"/>
      <point x="854" y="948"/>
      <point x="854" y="651" type="curve" smooth="yes"/>
      <point x="854" y="322"/>
      <point x="754" y="135"/>
    </contour>
  </outline>
</glyph>
<glyph name="uni01BB" format="2">
  <advance width="879"/>
  <unicode hex="01BB"/>
  <anchor x="440" y="0" name="bottom"/>
  <anchor x="440" y="1567" name="top"/>
  <outline>
    <contour>
      <point x="399" y="1567" type="curve" smooth="yes"/>
      <point x="268" y="1567"/>
      <point x="178" y="1534"/>
      <point x="78" y="1430" type="curve"/>
      <point x="158" y="1311" type="line"/>
      <point x="233" y="1384"/>
      <point x="295" y="1411"/>
      <point x="381" y="1411" type="curve" smooth="yes"/>
      <point x="506" y="1411"/>
      <point x="575" y="1317"/>
      <point x="575" y="1176" type="curve" smooth="yes"/>
      <point x="575" y="1044"/>
      <point x="537" y="932"/>
      <point x="483" y="829" type="curve"/>
      <point x="141" y="829" type="line"/>
      <point x="141" y="702" type="line"/>
      <point x="410" y="702" type="line"/>
      <point x="68" y="127" type="line"/>
      <point x="68" y="0" type="line"/>
      <point x="782" y="0" type="line"/>
      <point x="782" y="154" type="line"/>
      <point x="268" y="154" type="line"/>
      <point x="268" y="162" type="line"/>
      <point x="594" y="702" type="line"/>
      <point x="786" y="702" type="line"/>
      <point x="786" y="829" type="line"/>
      <point x="664" y="829" type="line"/>
      <point x="702" y="909"/>
      <point x="748" y="1034"/>
      <point x="748" y="1176" type="curve" smooth="yes"/>
      <point x="748" y="1407"/>
      <point x="618" y="1567"/>
    </contour>
  </outline>
</glyph>
<glyph name="uni01BD" format="2">
  <advance width="715"/>
  <unicode hex="01BD"/>
  <anchor x="358" y="0" name="bottom"/>
  <anchor x="358" y="1100" name="top"/>
  <outline>
    <contour>
      <point x="268" y="-20" type="curve" smooth="yes"/>
      <point x="502" y="-20"/>
      <point x="629" y="117"/>
      <point x="629" y="334" type="curve" smooth="yes"/>
      <point x="629" y="563"/>
      <point x="494" y="651"/>
      <point x="324" y="651" type="curve"/>
      <point x="319" y="651" type="line"/>
      <point x="319" y="956" type="line"/>
      <point x="604" y="956" type="line"/>
      <point x="604" y="1100" type="line"/>
      <point x="61" y="1100" type="line"/>
      <point x="61" y="956" type="line"/>
      <point x="160" y="956" type="line"/>
      <point x="160" y="512" type="line"/>
      <point x="248" y="512" type="line" smooth="yes"/>
      <point x="389" y="512"/>
      <point x="459" y="451"/>
      <point x="459" y="322" type="curve" smooth="yes"/>
      <point x="459" y="199"/>
      <point x="395" y="125"/>
      <point x="252" y="125" type="curve" smooth="yes"/>
      <point x="184" y="125"/>
      <point x="117" y="145"/>
      <point x="61" y="174" type="curve"/>
      <point x="61" y="27" type="line"/>
      <point x="117" y="-2"/>
      <point x="186" y="-20"/>
    </contour>
  </outline>
</glyph>
<glyph name="aringacute" format="2">
  <advance width="852"/>
  <unicode hex="01FB"/>
  <anchor x="426" y="0" name="bottom"/>
  <anchor x="426" y="1960" name="top"/>
  <outline>
    <contour>
      <point x="436" y="1120" type="curve" smooth="yes"/>
      <point x="332" y="1120"/>
      <point x="236" y="1094"/>
      <point x="150" y="1040" type="curve"/>
      <point x="203" y="915" type="line"/>
      <point x="281" y="961"/>
      <point x="348" y="983"/>
      <point x="410" y="983" type="curve" smooth="yes"/>
      <point x="514" y="983"/>
      <point x="557" y="905"/>
      <point x="557" y="737" type="curve" smooth="yes"/>
      <point x="557" y="666" type="line"/>
      <point x="432" y="659" type="line" smooth="yes"/>
      <point x="201" y="649"/>
      <point x="70" y="524"/>
      <point x="70" y="307" type="curve" smooth="yes"/>
      <point x="70" y="133"/>
      <point x="145" y="-20"/>
      <point x="315" y="-20" type="curve" smooth="yes"/>
      <point x="430" y="-20"/>
      <point x="510" y="37"/>
      <point x="567" y="152" type="curve"/>
      <point x="571" y="152" type="line"/>
      <point x="596" y="0" type="line"/>
      <point x="723" y="0" type="line"/>
      <point x="723" y="741" type="line" smooth="yes"/>
      <point x="723" y="983"/>
      <point x="643" y="1120"/>
    </contour>
    <contour>
      <point x="559" y="545" type="line"/>
      <point x="559" y="434" type="line" smooth="yes"/>
      <point x="559" y="233"/>
      <point x="487" y="115"/>
      <point x="373" y="115" type="curve" smooth="yes"/>
      <point x="289" y="115"/>
      <point x="240" y="176"/>
      <point x="240" y="311" type="curve" smooth="yes"/>
      <point x="240" y="455"/>
      <point x="311" y="530"/>
      <point x="461" y="539" type="curve" smooth="yes"/>
    </contour>
    <contour>
      <point x="440" y="1522" type="curve" smooth="yes"/>
      <point x="510" y="1522"/>
      <point x="549" y="1477"/>
      <point x="549" y="1415" type="curve" smooth="yes"/>
      <point x="549" y="1350"/>
      <point x="504" y="1309"/>
      <point x="440" y="1309" type="curve" smooth="yes"/>
      <point x="367" y="1309"/>
      <point x="330" y="1350"/>
      <point x="330" y="1415" type="curve" smooth="yes"/>
      <point x="330" y="1477"/>
      <point x="377" y="1522"/>
    </contour>
    <contour>
      <point x="440" y="1620" type="curve" smooth="yes"/>
      <point x="309" y="1620"/>
      <point x="225" y="1538"/>
      <point x="225" y="1415" type="curve" smooth="yes"/>
      <point x="225" y="1290"/>
      <point x="307" y="1208"/>
      <point x="440" y="1208" type="curve" smooth="yes"/>
      <point x="571" y="1208"/>
      <point x="657" y="1292"/>
      <point x="657" y="1417" type="curve" smooth="yes"/>
      <point x="657" y="1542"/>
      <point x="565" y="1620"/>
    </contour>
    <contour>
      <point x="723" y="1960" type="line"/>
      <point x="516" y="1960" type="line"/>
      <point x="479" y="1882"/>
      <point x="434" y="1808"/>
      <point x="342" y="1688" type="curve"/>
      <point x="342" y="1667" type="line"/>
      <point x="459" y="1667" type="line"/>
      <point x="528" y="1722"/>
      <point x="672" y="1864"/>
      <point x="723" y="1944" type="curve"/>
    </contour>
  </outline>
</glyph>
<glyph name="jdotless" format="2">
  <advance width="432"/>
  <unicode hex="0237"/>
  <anchor x="74" y="-492" name="bottom"/>
  <anchor x="215" y="1100" name="top"/>
  <outline>
    <contour>
      <point x="74" y="-492" type="curve" smooth="yes"/>
      <point x="221" y="-492"/>
      <point x="299" y="-383"/>
      <point x="299" y="-168" type="curve" smooth="yes"/>
      <point x="299" y="1100" type="line"/>
      <point x="133" y="1100" type="line"/>
      <point x="133" y="-174" type="line" smooth="yes"/>
      <point x="133" y="-289"/>
      <point x="109" y="-342"/>
      <point x="45" y="-342" type="curve" smooth="yes"/>
      <point x="23" y="-342"/>
      <point x="-2" y="-336"/>
      <point x="-27" y="-326" type="curve"/>
      <point x="-27" y="-473" type="line"/>
      <point x="-4" y="-483"/>
      <point x="37" y="-492"/>
    </contour>
  </outline>
</glyph>
<glyph name="uni0240" format="2">
  <advance width="606"/>
  <unicode hex="0240"/>
  <anchor x="303" y="-492" name="bottom"/>
  <anchor x="303" y="1100" name="top"/>
  <outline>
    <contour>
      <point x="547" y="-492" type="curve" smooth="yes"/>
      <point x="592" y="-492"/>
      <point x="643" y="-479"/>
      <point x="672" y="-463" type="curve"/>
      <point x="672" y="-328" type="line"/>
      <point x="647" y="-342"/>
      <point x="616" y="-350"/>
      <point x="573" y="-350" type="curve" smooth="yes"/>
      <point x="535" y="-350"/>
      <point x="477" y="-315"/>
      <point x="449" y="-127" type="curve" smooth="yes"/>
      <point x="426" y="25"/>
      <point x="358" y="117"/>
      <point x="225" y="135" type="curve"/>
      <point x="563" y="979" type="line"/>
      <point x="563" y="1100" type="line"/>
      <point x="74" y="1100" type="line"/>
      <point x="74" y="958" type="line"/>
      <point x="383" y="958" type="line"/>
      <point x="45" y="113" type="line"/>
      <point x="45" y="0" type="line"/>
      <point x="133" y="0" type="line" smooth="yes"/>
      <point x="225" y="0"/>
      <point x="283" y="-45"/>
      <point x="301" y="-186" type="curve" smooth="yes"/>
      <point x="328" y="-391"/>
      <point x="406" y="-492"/>
    </contour>
  </outline>
</glyph>
<glyph name="eopenreversedhook" format="2">
  <advance width="989"/>
  <unicode hex="025D"/>
  <anchor x="332" y="0" name="bottom"/>
  <anchor x="332" y="1100" name="top"/>
  <outline>
    <contour>
      <point x="838" y="565" type="curve" smooth="yes"/>
      <point x="897" y="565"/>
      <point x="948" y="590"/>
      <point x="989" y="627" type="curve"/>
      <point x="944" y="719" type="line"/>
      <point x="918" y="696"/>
      <point x="891" y="682"/>
      <point x="852" y="682" type="curve" smooth="yes"/>
      <point x="799" y="682"/>
      <point x="778" y="729"/>
      <point x="752" y="866" type="curve" smooth="yes"/>
      <point x="731" y="969" type="line"/>
      <point x="444" y="856" type="line"/>
      <point x="477" y="745" type="line"/>
      <point x="649" y="815" type="line"/>
      <point x="684" y="643"/>
      <point x="733" y="565"/>
    </contour>
    <component base="afii10073"/>
  </outline>
</glyph>
<glyph name="uni0274" format="2">
  <advance width="971"/>
  <unicode hex="0274"/>
  <anchor x="485" y="0" name="bottom"/>
  <anchor x="485" y="1100" name="top"/>
  <anchor x="895" y="1100" name="topright"/>
  <outline>
    <contour>
      <point x="133" y="0" type="line"/>
      <point x="293" y="0" type="line"/>
      <point x="293" y="600" type="line" smooth="yes"/>
      <point x="293" y="686"/>
      <point x="291" y="774"/>
      <point x="285" y="862" type="curve"/>
      <point x="651" y="0" type="line"/>
      <point x="838" y="0" type="line"/>
      <point x="838" y="1100" type="line"/>
      <point x="676" y="1100" type="line"/>
      <point x="676" y="485" type="line" smooth="yes"/>
      <point x="676" y="403"/>
      <point x="680" y="330"/>
      <point x="686" y="238" type="curve"/>
      <point x="322" y="1100" type="line"/>
      <point x="133" y="1100" type="line"/>
    </contour>
  </outline>
</glyph>
<glyph name="uni0276" format="2">
  <advance width="1192"/>
  <unicode hex="0276"/>
  <anchor x="596" y="0" name="bottom"/>
  <anchor x="596" y="1100" name="top"/>
  <outline>
    <contour>
      <point x="424" y="1120" type="curve" smooth="yes"/>
      <point x="197" y="1120"/>
      <point x="86" y="913"/>
      <point x="86" y="551" type="curve" smooth="yes"/>
      <point x="86" y="207"/>
      <point x="203" y="-20"/>
      <point x="422" y="-20" type="curve" smooth="yes"/>
      <point x="520" y="-20"/>
      <point x="594" y="23"/>
      <point x="647" y="121" type="curve"/>
      <point x="647" y="0" type="line"/>
      <point x="1116" y="0" type="line"/>
      <point x="1116" y="137" type="line"/>
      <point x="780" y="137" type="line"/>
      <point x="780" y="506" type="line"/>
      <point x="1092" y="506" type="line"/>
      <point x="1092" y="645" type="line"/>
      <point x="780" y="645" type="line"/>
      <point x="780" y="963" type="line"/>
      <point x="1116" y="963" type="line"/>
      <point x="1116" y="1100" type="line"/>
      <point x="647" y="1100" type="line"/>
      <point x="647" y="985" type="line"/>
      <point x="592" y="1081"/>
      <point x="516" y="1120"/>
    </contour>
    <contour>
      <point x="442" y="975" type="curve" smooth="yes"/>
      <point x="569" y="975"/>
      <point x="629" y="834"/>
      <point x="629" y="551" type="curve" smooth="yes"/>
      <point x="629" y="266"/>
      <point x="569" y="125"/>
      <point x="442" y="125" type="curve" smooth="yes"/>
      <point x="313" y="125"/>
      <point x="256" y="270"/>
      <point x="256" y="551" type="curve" smooth="yes"/>
      <point x="256" y="834"/>
      <point x="311" y="975"/>
    </contour>
  </outline>
</glyph>
<glyph name="uni027A" format="2">
  <advance width="623"/>
  <unicode hex="027A"/>
  <anchor x="311" y="0" name="bottom"/>
  <anchor x="311" y="1556" name="top"/>
  <outline>
    <contour>
      <point x="113" y="-20" type="curve" smooth="yes"/>
      <point x="207" y="-20"/>
      <point x="281" y="59"/>
      <point x="328" y="188" type="curve"/>
      <point x="336" y="188" type="line"/>
      <point x="358" y="0" type="line"/>
      <point x="489" y="0" type="line"/>
      <point x="489" y="1556" type="line"/>
      <point x="324" y="1556" type="line"/>
      <point x="324" y="524" type="line" smooth="yes"/>
      <point x="324" y="311"/>
      <point x="240" y="152"/>
      <point x="125" y="152" type="curve" smooth="yes"/>
      <point x="94" y="152"/>
      <point x="68" y="156"/>
      <point x="43" y="166" type="curve"/>
      <point x="18" y="-6" type="line"/>
      <point x="51" y="-16"/>
      <point x="82" y="-20"/>
    </contour>
  </outline>
</glyph>
<glyph name="uni0291" format="2">
  <advance width="842"/>
  <unicode hex="0291"/>
  <anchor x="422" y="-145" name="bottom"/>
  <anchor x="422" y="1100" name="top"/>
  <outline>
    <contour>
      <point x="342" y="-145" type="line"/>
      <point x="356" y="-98"/>
      <point x="373" y="-47"/>
      <point x="387" y="0" type="curve"/>
      <point x="559" y="0" type="line" smooth="yes"/>
      <point x="694" y="0"/>
      <point x="811" y="74"/>
      <point x="811" y="227" type="curve"/>
      <point x="811" y="350"/>
      <point x="739" y="434"/>
      <point x="612" y="434" type="curve" smooth="yes"/>
      <point x="479" y="434"/>
      <point x="401" y="340"/>
      <point x="319" y="141" type="curve"/>
      <point x="236" y="141" type="line"/>
      <point x="592" y="979" type="line"/>
      <point x="592" y="1100" type="line"/>
      <point x="72" y="1100" type="line"/>
      <point x="72" y="958" type="line"/>
      <point x="412" y="958" type="line"/>
      <point x="51" y="113" type="line"/>
      <point x="51" y="0" type="line"/>
      <point x="266" y="0" type="line"/>
      <point x="254" y="-37"/>
      <point x="242" y="-74"/>
      <point x="227" y="-111" type="curve"/>
    </contour>
    <contour>
      <point x="438" y="141" type="line"/>
      <point x="489" y="270"/>
      <point x="530" y="322"/>
      <point x="592" y="322" type="curve" smooth="yes"/>
      <point x="647" y="322"/>
      <point x="674" y="287"/>
      <point x="674" y="233" type="curve" smooth="yes"/>
      <point x="674" y="182"/>
      <point x="641" y="141"/>
      <point x="565" y="141" type="curve" smooth="yes"/>
    </contour>
  </outline>
</glyph>
<glyph name="uni029F" format="2">
  <advance width="653"/>
  <unicode hex="029F"/>
  <anchor x="328" y="0" name="bottom"/>
  <anchor x="328" y="1100" name="top"/>
  <outline>
    <contour>
      <point x="133" y="0" type="line"/>
      <point x="633" y="0" type="line"/>
      <point x="633" y="145" type="line"/>
      <point x="299" y="145" type="line"/>
      <point x="299" y="1100" type="line"/>
      <point x="133" y="1100" type="line"/>
    </contour>
  </outline>
</glyph>
<glyph name="uni02C8" format="2">
  <advance width="283"/>
  <unicode hex="02C8"/>
  <anchor x="141" y="895" name="_top"/>
  <anchor x="145" y="1565" name="top"/>
  <outline>
    <contour>
      <point x="201" y="1565" type="line"/>
      <point x="82" y="1565" type="line"/>
      <point x="82" y="1016" type="line"/>
      <point x="201" y="1016" type="line"/>
    </contour>
  </outline>
</glyph>
<glyph name="uni02D1" format="2">
  <advance width="504"/>
  <unicode hex="02D1"/>
  <outline>
    <contour>
      <point x="250" y="829" type="line"/>
      <point x="381" y="1100" type="line"/>
      <point x="123" y="1100" type="line"/>
    </contour>
  </outline>
</glyph>
<glyph name="tilde" format="2">
  <advance width="770"/>
  <unicode hex="02DC"/>
  <outline>
    <contour>
      <point x="82" y="1239" type="curve"/>
      <point x="184" y="1239" type="line"/>
      <point x="197" y="1315"/>
      <point x="225" y="1360"/>
      <point x="262" y="1360" type="curve" smooth="yes"/>
      <point x="326" y="1360"/>
      <point x="422" y="1241"/>
      <point x="520" y="1241" type="curve" smooth="yes"/>
      <point x="612" y="1241"/>
      <point x="678" y="1329"/>
      <point x="688" y="1491" type="curve"/>
      <point x="584" y="1491" type="line"/>
      <point x="571" y="1419"/>
      <point x="553" y="1372"/>
      <point x="512" y="1372" type="curve" smooth="yes"/>
      <point x="436" y="1372"/>
      <point x="352" y="1489"/>
      <point x="252" y="1489" type="curve" smooth="yes"/>
      <point x="137" y="1489"/>
      <point x="94" y="1368"/>
    </contour>
  </outline>
</glyph>
<glyph name="hungarumlaut" format="2">
  <advance width="793"/>
  <unicode hex="02DD"/>
  <outline>
    <contour>
      <point x="711" y="1569" type="line"/>
      <point x="539" y="1569" type="line"/>
      <point x="514" y="1507"/>
      <point x="436" y="1354"/>
      <point x="377" y="1264" type="curve"/>
      <point x="377" y="1241" type="line"/>
      <point x="461" y="1241" type="line"/>
      <point x="539" y="1311"/>
      <point x="666" y="1460"/>
      <point x="711" y="1550" type="curve"/>
    </contour>
    <contour>
      <point x="416" y="1569" type="line"/>
      <point x="244" y="1569" type="line"/>
      <point x="215" y="1501"/>
      <point x="143" y="1360"/>
      <point x="82" y="1264" type="curve"/>
      <point x="82" y="1241" type="line"/>
      <point x="162" y="1241" type="line"/>
      <point x="260" y="1325"/>
      <point x="369" y="1456"/>
      <point x="416" y="1550" type="curve"/>
    </contour>
  </outline>
</glyph>
<glyph name="rhotichookmod" format="2">
  <advance width="328"/>
  <unicode hex="02DE"/>
  <outline>
    <contour>
      <point x="176" y="381" type="curve" smooth="yes"/>
      <point x="236" y="381"/>
      <point x="287" y="406"/>
      <point x="328" y="442" type="curve"/>
      <point x="283" y="535" type="line"/>
      <point x="256" y="512"/>
      <point x="229" y="498"/>
      <point x="190" y="498" type="curve" smooth="yes"/>
      <point x="137" y="498"/>
      <point x="117" y="545"/>
      <point x="90" y="682" type="curve" smooth="yes"/>
      <point x="70" y="784" type="line"/>
      <point x="-217" y="672" type="line"/>
      <point x="-184" y="561" type="line"/>
      <point x="-12" y="631" type="line"/>
      <point x="23" y="459"/>
      <point x="72" y="381"/>
    </contour>
  </outline>
</glyph>
<glyph name="uni02FF" format="2">
  <advance width="791"/>
  <unicode hex="02FF"/>
  <outline>
    <contour>
      <point x="420" y="-451" type="line"/>
      <point x="420" y="-354" type="line"/>
      <point x="229" y="-213" type="line"/>
      <point x="709" y="-213" type="line"/>
      <point x="709" y="-123" type="line"/>
      <point x="229" y="-123" type="line"/>
      <point x="420" y="16" type="line"/>
      <point x="420" y="113" type="line"/>
      <point x="82" y="-133" type="line"/>
      <point x="82" y="-203" type="line"/>
    </contour>
  </outline>
</glyph>
<glyph name="gbridgeabovecomb" format="2">
  <unicode hex="0346"/>
  <anchor x="-2" y="1100" name="_top"/>
  <anchor x="4" y="1536" name="top"/>
  <outline>
    <contour>
      <point x="-256" y="1536" type="line"/>
      <point x="-256" y="1227" type="line"/>
      <point x="-162" y="1227" type="line"/>
      <point x="-162" y="1440" type="line"/>
      <point x="160" y="1440" type="line"/>
      <point x="160" y="1227" type="line"/>
      <point x="254" y="1227" type="line"/>
      <point x="254" y="1536" type="line"/>
    </contour>
  </outline>
</glyph>
<glyph name="arrowheadrightheadupbelowcomb" format="2">
  <unicode hex="0356"/>
  <anchor x="2" y="0" name="_bottom"/>
  <anchor x="6" y="-492" name="bottom"/>
  <outline>
    <contour>
      <point x="-37" y="-451" type="curve"/>
      <point x="-37" y="-471" type="line"/>
      <point x="35" y="-471" type="line"/>
      <point x="63" y="-408"/>
      <point x="92" y="-326"/>
      <point x="119" y="-246" type="curve"/>
      <point x="143" y="-322"/>
      <point x="176" y="-403"/>
      <point x="205" y="-471" type="curve"/>
      <point x="279" y="-471" type="line"/>
      <point x="279" y="-451" type="line"/>
      <point x="233" y="-330"/>
      <point x="190" y="-199"/>
      <point x="170" y="-109" type="curve"/>
      <point x="72" y="-109" type="line"/>
      <point x="49" y="-205"/>
      <point x="-6" y="-369"/>
    </contour>
    <contour>
      <point x="-260" y="-80" type="curve"/>
      <point x="-274" y="-80" type="line"/>
      <point x="-274" y="-158" type="line"/>
      <point x="-233" y="-203"/>
      <point x="-188" y="-242"/>
      <point x="-135" y="-287" type="curve"/>
      <point x="-186" y="-328"/>
      <point x="-233" y="-369"/>
      <point x="-274" y="-414" type="curve"/>
      <point x="-274" y="-492" type="line"/>
      <point x="-260" y="-492" type="line"/>
      <point x="-186" y="-422"/>
      <point x="-102" y="-362"/>
      <point x="-41" y="-334" type="curve"/>
      <point x="-41" y="-242" type="line"/>
      <point x="-106" y="-205"/>
      <point x="-205" y="-129"/>
    </contour>
  </outline>
</glyph>
<glyph name="doublebrevebelowcomb" format="2">
  <unicode hex="035C"/>
  <anchor x="-375" y="0" name="_bottom"/>
  <anchor x="4" y="-469" name="bottom"/>
  <outline>
    <contour>
      <point x="4" y="-469" type="curve"/>
      <point x="262" y="-469"/>
      <point x="465" y="-358"/>
      <point x="563" y="-86" type="curve"/>
      <point x="444" y="-86" type="line"/>
      <point x="362" y="-254"/>
      <point x="205" y="-326"/>
      <point x="4" y="-326" type="curve"/>
      <point x="-229" y="-326"/>
      <point x="-375" y="-236"/>
      <point x="-444" y="-86" type="curve"/>
      <point x="-565" y="-86" type="line"/>
      <point x="-485" y="-340"/>
      <point x="-287" y="-469"/>
    </contour>
  </outline>
</glyph>
<glyph name="Delta" format="2">
  <advance width="913"/>
  <unicode hex="0394"/>
  <anchor x="457" y="0" name="bottom"/>
  <anchor x="457" y="1462" name="top"/>
  <outline>
    <contour>
      <point x="559" y="1462" type="line"/>
      <point x="350" y="1462" type="line"/>
      <point x="23" y="127" type="line"/>
      <point x="23" y="0" type="line"/>
      <point x="891" y="0" type="line"/>
      <point x="891" y="117" type="line"/>
    </contour>
    <contour>
      <point x="698" y="156" type="line"/>
      <point x="215" y="156" type="line"/>
      <point x="399" y="1006" type="line" smooth="yes"/>
      <point x="418" y="1090"/>
      <point x="438" y="1202"/>
      <point x="453" y="1292" type="curve"/>
      <point x="461" y="1225"/>
      <point x="485" y="1098"/>
      <point x="506" y="1010" type="curve" smooth="yes"/>
    </contour>
  </outline>
</glyph>
<glyph name="Xi" format="2">
  <advance width="811"/>
  <unicode hex="039E"/>
  <anchor x="406" y="0" name="bottom"/>
  <anchor x="406" y="1462" name="top"/>
  <outline>
    <contour>
      <point x="86" y="0" type="line"/>
      <point x="727" y="0" type="line"/>
      <point x="727" y="156" type="line"/>
      <point x="86" y="156" type="line"/>
    </contour>
    <contour>
      <point x="154" y="688" type="line"/>
      <point x="657" y="688" type="line"/>
      <point x="657" y="844" type="line"/>
      <point x="154" y="844" type="line"/>
    </contour>
    <contour>
      <point x="111" y="1309" type="line"/>
      <point x="705" y="1309" type="line"/>
      <point x="705" y="1462" type="line"/>
      <point x="111" y="1462" type="line"/>
    </contour>
  </outline>
</glyph>
<glyph name="nu" format="2">
  <advance width="815"/>
  <unicode hex="03BD"/>
  <anchor x="408" y="0" name="bottom"/>
  <anchor x="408" y="1100" name="top"/>
  <outline>
    <contour>
      <point x="23" y="1100" type="line"/>
      <point x="268" y="0" type="line"/>
      <point x="422" y="0" type="line"/>
      <point x="659" y="332"/>
      <point x="758" y="670"/>
      <point x="758" y="1100" type="curve"/>
      <point x="592" y="1100" type="line"/>
      <point x="592" y="739"/>
      <point x="526" y="438"/>
      <point x="381" y="180" type="curve"/>
      <point x="373" y="180" type="line"/>
      <point x="367" y="240"/>
      <point x="352" y="322"/>
      <point x="330" y="424" type="curve" smooth="yes"/>
      <point x="193" y="1100" type="line"/>
    </contour>
  </outline>
</glyph>
<glyph name="upsilon" format="2">
  <advance width="911"/>
  <unicode hex="03C5"/>
  <anchor x="457" y="0" name="bottom"/>
  <anchor x="455" y="1100" name="top"/>
  <outline>
    <contour>
      <point x="459" y="-18" type="curve"/>
      <point x="694" y="-18"/>
      <point x="823" y="176"/>
      <point x="823" y="551" type="curve" smooth="yes"/>
      <point x="823" y="766"/>
      <point x="807" y="877"/>
      <point x="762" y="1100" type="curve"/>
      <point x="598" y="1100" type="line"/>
      <point x="641" y="907"/>
      <point x="657" y="741"/>
      <point x="657" y="549" type="curve" smooth="yes"/>
      <point x="657" y="262"/>
      <point x="594" y="129"/>
      <point x="457" y="129" type="curve" smooth="yes"/>
      <point x="322" y="129"/>
      <point x="295" y="256"/>
      <point x="295" y="455" type="curve" smooth="yes"/>
      <point x="295" y="1100" type="line"/>
      <point x="129" y="1100" type="line"/>
      <point x="129" y="471" type="line"/>
      <point x="131" y="113"/>
      <point x="217" y="-14"/>
    </contour>
  </outline>
</glyph>
<glyph name="chi" format="2">
  <advance width="795"/>
  <unicode hex="03C7"/>
  <anchor x="397" y="-492" name="bottom"/>
  <anchor x="397" y="1100" name="top"/>
  <anchor x="754" y="1100" name="topright"/>
  <outline>
    <contour>
      <point x="125" y="1114" type="curve" smooth="yes"/>
      <point x="88" y="1114"/>
      <point x="55" y="1108"/>
      <point x="31" y="1100" type="curve"/>
      <point x="31" y="961" type="line"/>
      <point x="47" y="967"/>
      <point x="70" y="971"/>
      <point x="94" y="971" type="curve" smooth="yes"/>
      <point x="150" y="971"/>
      <point x="174" y="918"/>
      <point x="203" y="811" type="curve" smooth="yes"/>
      <point x="317" y="352" type="line"/>
      <point x="-4" y="-492" type="line"/>
      <point x="170" y="-492" type="line"/>
      <point x="377" y="123" type="line"/>
      <point x="461" y="-227" type="line"/>
      <point x="510" y="-422"/>
      <point x="575" y="-492"/>
      <point x="692" y="-492" type="curve" smooth="yes"/>
      <point x="733" y="-492"/>
      <point x="764" y="-487"/>
      <point x="791" y="-477" type="curve"/>
      <point x="791" y="-338" type="line"/>
      <point x="772" y="-344"/>
      <point x="752" y="-348"/>
      <point x="729" y="-348" type="curve" smooth="yes"/>
      <point x="666" y="-348"/>
      <point x="643" y="-307"/>
      <point x="606" y="-162" type="curve"/>
      <point x="483" y="342" type="line"/>
      <point x="770" y="1100" type="line"/>
      <point x="602" y="1100" type="line"/>
      <point x="422" y="569" type="line"/>
      <point x="354" y="862" type="line"/>
      <point x="307" y="1042"/>
      <point x="242" y="1114"/>
    </contour>
  </outline>
</glyph>
<glyph name="uni03D7" format="2">
  <advance width="1001"/>
  <unicode hex="03D7"/>
  <outline>
    <contour>
      <point x="760" y="-492" type="curve" smooth="yes"/>
      <point x="889" y="-492"/>
      <point x="969" y="-406"/>
      <point x="969" y="-184" type="curve" smooth="yes"/>
      <point x="969" y="139" type="line"/>
      <point x="952" y="133"/>
      <point x="930" y="125"/>
      <point x="895" y="125" type="curve" smooth="yes"/>
      <point x="819" y="125"/>
      <point x="774" y="193"/>
      <point x="774" y="406" type="curve" smooth="yes"/>
      <point x="774" y="662"/>
      <point x="840" y="901"/>
      <point x="926" y="1098" type="curve"/>
      <point x="741" y="1098" type="line"/>
      <point x="326" y="371" type="line"/>
      <point x="350" y="463"/>
      <point x="371" y="575"/>
      <point x="371" y="758" type="curve" smooth="yes"/>
      <point x="371" y="1024"/>
      <point x="268" y="1120"/>
      <point x="139" y="1120" type="curve" smooth="yes"/>
      <point x="84" y="1120"/>
      <point x="37" y="1112"/>
      <point x="10" y="1098" type="curve"/>
      <point x="33" y="958" type="line"/>
      <point x="51" y="971"/>
      <point x="72" y="977"/>
      <point x="96" y="977" type="curve" smooth="yes"/>
      <point x="170" y="977"/>
      <point x="211" y="881"/>
      <point x="211" y="672" type="curve" smooth="yes"/>
      <point x="211" y="414"/>
      <point x="143" y="164"/>
      <point x="72" y="0" type="curve"/>
      <point x="250" y="0" type="line"/>
      <point x="657" y="713" type="line"/>
      <point x="637" y="606"/>
      <point x="614" y="483"/>
      <point x="614" y="338" type="curve" smooth="yes"/>
      <point x="614" y="82"/>
      <point x="696" y="-6"/>
      <point x="803" y="-12" type="curve"/>
      <point x="803" y="-182" type="line" smooth="yes"/>
      <point x="803" y="-303"/>
      <point x="776" y="-348"/>
      <point x="729" y="-348" type="curve" smooth="yes"/>
      <point x="705" y="-348"/>
      <point x="678" y="-346"/>
      <point x="651" y="-338" type="curve"/>
      <point x="651" y="-477" type="line"/>
      <point x="682" y="-485"/>
      <point x="723" y="-492"/>
    </contour>
  </outline>
</glyph>
<glyph name="afii10026" format="2">
  <advance width="1174"/>
  <unicode hex="0418"/>
  <anchor x="588" y="0" name="bottom"/>
  <anchor x="592" y="1462" name="top"/>
  <outline>
    <contour>
      <point x="150" y="1462" type="line"/>
      <point x="150" y="0" type="line"/>
      <point x="360" y="0" type="line"/>
      <point x="864" y="1188" type="line"/>
      <point x="872" y="1188" type="line"/>
      <point x="862" y="1077"/>
      <point x="858" y="979"/>
      <point x="858" y="895" type="curve" smooth="yes"/>
      <point x="858" y="0" type="line"/>
      <point x="1026" y="0" type="line"/>
      <point x="1026" y="1462" type="line"/>
      <point x="813" y="1462" type="line"/>
      <point x="315" y="289" type="line"/>
      <point x="307" y="289" type="line"/>
      <point x="315" y="428"/>
      <point x="317" y="512"/>
      <point x="317" y="588" type="curve" smooth="yes"/>
      <point x="317" y="1462" type="line"/>
    </contour>
  </outline>
</glyph>
<glyph name="afii10072" format="2">
  <advance width="1157"/>
  <unicode hex="0436"/>
  <anchor x="580" y="0" name="bottom"/>
  <anchor x="575" y="1100" name="top"/>
  <outline>
    <contour>
      <point x="1126" y="1100" type="line"/>
      <point x="946" y="1100" type="line"/>
      <point x="662" y="578" type="line"/>
      <point x="662" y="1100" type="line"/>
      <point x="498" y="1100" type="line"/>
      <point x="498" y="578" type="line"/>
      <point x="215" y="1100" type="line"/>
      <point x="35" y="1100" type="line"/>
      <point x="336" y="580" type="line"/>
      <point x="8" y="0" type="line"/>
      <point x="195" y="0" type="line"/>
      <point x="498" y="569" type="line"/>
      <point x="498" y="0" type="line"/>
      <point x="662" y="0" type="line"/>
      <point x="662" y="569" type="line"/>
      <point x="965" y="0" type="line"/>
      <point x="1153" y="0" type="line"/>
      <point x="825" y="580" type="line"/>
    </contour>
  </outline>
</glyph>
<glyph name="afii10095" format="2">
  <advance width="750"/>
  <unicode hex="044D"/>
  <anchor x="375" y="0" name="bottom"/>
  <anchor x="313" y="1100" name="top"/>
  <outline>
    <contour>
      <point x="270" y="-20" type="curve" smooth="yes"/>
      <point x="530" y="-20"/>
      <point x="664" y="178"/>
      <point x="664" y="553" type="curve" smooth="yes"/>
      <point x="664" y="922"/>
      <point x="526" y="1120"/>
      <point x="276" y="1120" type="curve" smooth="yes"/>
      <point x="199" y="1120"/>
      <point x="129" y="1102"/>
      <point x="61" y="1067" type="curve"/>
      <point x="115" y="932" type="line"/>
      <point x="150" y="956"/>
      <point x="217" y="977"/>
      <point x="270" y="977" type="curve" smooth="yes"/>
      <point x="401" y="977"/>
      <point x="475" y="862"/>
      <point x="489" y="633" type="curve"/>
      <point x="199" y="633" type="line"/>
      <point x="199" y="500" type="line"/>
      <point x="492" y="500" type="line"/>
      <point x="481" y="242"/>
      <point x="403" y="123"/>
      <point x="256" y="123" type="curve" smooth="yes"/>
      <point x="190" y="123"/>
      <point x="125" y="145"/>
      <point x="59" y="180" type="curve"/>
      <point x="59" y="37" type="line"/>
      <point x="113" y="0"/>
      <point x="193" y="-20"/>
    </contour>
  </outline>
</glyph>
<glyph name="afii10099" format="2">
  <advance width="934"/>
  <unicode hex="0452"/>
  <anchor x="467" y="-492" name="bottom"/>
  <anchor x="467" y="1556" name="top"/>
  <outline>
    <contour>
      <point x="580" y="-492" type="curve" smooth="yes"/>
      <point x="727" y="-492"/>
      <point x="805" y="-379"/>
      <point x="805" y="-168" type="curve" smooth="yes"/>
      <point x="805" y="731" type="line" smooth="yes"/>
      <point x="805" y="977"/>
      <point x="721" y="1106"/>
      <point x="535" y="1106" type="curve" smooth="yes"/>
      <point x="432" y="1106"/>
      <point x="340" y="1044"/>
      <point x="299" y="938" type="curve"/>
      <point x="287" y="938" type="line"/>
      <point x="295" y="987"/>
      <point x="299" y="1036"/>
      <point x="299" y="1083" type="curve" smooth="yes"/>
      <point x="299" y="1241" type="line"/>
      <point x="535" y="1241" type="line"/>
      <point x="535" y="1370" type="line"/>
      <point x="299" y="1370" type="line"/>
      <point x="299" y="1556" type="line"/>
      <point x="133" y="1556" type="line"/>
      <point x="133" y="1370" type="line"/>
      <point x="14" y="1370" type="line"/>
      <point x="14" y="1241" type="line"/>
      <point x="133" y="1241" type="line"/>
      <point x="133" y="0" type="line"/>
      <point x="297" y="0" type="line"/>
      <point x="297" y="557" type="line" smooth="yes"/>
      <point x="297" y="842"/>
      <point x="362" y="956"/>
      <point x="498" y="956" type="curve" smooth="yes"/>
      <point x="598" y="956"/>
      <point x="639" y="881"/>
      <point x="639" y="698" type="curve" smooth="yes"/>
      <point x="639" y="-170" type="line"/>
      <point x="639" y="-287"/>
      <point x="610" y="-342"/>
      <point x="551" y="-342" type="curve" smooth="yes"/>
      <point x="530" y="-342"/>
      <point x="506" y="-336"/>
      <point x="479" y="-326" type="curve"/>
      <point x="479" y="-473" type="line"/>
      <point x="504" y="-483"/>
      <point x="547" y="-492"/>
    </contour>
  </outline>
</glyph>
<glyph name="uni0464" format="2">
  <advance width="1346"/>
  <unicode hex="0464"/>
  <anchor x="940" y="0" name="bottom"/>
  <anchor x="940" y="1462" name="top"/>
  <outline>
    <contour>
      <point x="1004" y="-20" type="curve" smooth="yes"/>
      <point x="1102" y="-20"/>
      <point x="1186" y="2"/>
      <point x="1255" y="43" type="curve"/>
      <point x="1255" y="203" type="line"/>
      <point x="1184" y="160"/>
      <point x="1106" y="135"/>
      <point x="1024" y="135" type="curve" smooth="yes"/>
      <point x="805" y="135"/>
      <point x="709" y="393"/>
      <point x="702" y="682" type="curve"/>
      <point x="1141" y="682" type="line"/>
      <point x="1141" y="838" type="line"/>
      <point x="705" y="838" type="line"/>
      <point x="723" y="1098"/>
      <point x="813" y="1329"/>
      <point x="1014" y="1329" type="curve" smooth="yes"/>
      <point x="1096" y="1329"/>
      <point x="1165" y="1305"/>
      <point x="1237" y="1257" type="curve"/>
      <point x="1296" y="1403" type="line"/>
      <point x="1212" y="1458"/>
      <point x="1116" y="1485"/>
      <point x="1012" y="1485" type="curve" smooth="yes"/>
      <point x="711" y="1485"/>
      <point x="559" y="1210"/>
      <point x="532" y="838" type="curve"/>
      <point x="322" y="838" type="line"/>
      <point x="322" y="1462" type="line"/>
      <point x="150" y="1462" type="line"/>
      <point x="150" y="0" type="line"/>
      <point x="322" y="0" type="line"/>
      <point x="322" y="682" type="line"/>
      <point x="528" y="682" type="line"/>
      <point x="541" y="295"/>
      <point x="686" y="-20"/>
    </contour>
  </outline>
</glyph>
<glyph name="uni046F" format="2">
  <advance width="725"/>
  <unicode hex="046F"/>
  <anchor x="362" y="-379" name="bottom"/>
  <anchor x="362" y="1356" name="top"/>
  <outline>
    <contour>
      <point x="522" y="1356" type="curve" smooth="yes"/>
      <point x="434" y="1356"/>
      <point x="369" y="1266"/>
      <point x="311" y="1153" type="curve"/>
      <point x="254" y="1237"/>
      <point x="205" y="1305"/>
      <point x="162" y="1352" type="curve"/>
      <point x="49" y="1352" type="line"/>
      <point x="49" y="1331" type="line"/>
      <point x="104" y="1257"/>
      <point x="152" y="1184"/>
      <point x="188" y="1106" type="curve"/>
      <point x="139" y="1096"/>
      <point x="96" y="1079"/>
      <point x="57" y="1053" type="curve"/>
      <point x="119" y="928" type="line"/>
      <point x="170" y="963"/>
      <point x="225" y="981"/>
      <point x="289" y="981" type="curve" smooth="yes"/>
      <point x="389" y="981"/>
      <point x="442" y="928"/>
      <point x="442" y="823" type="curve" smooth="yes"/>
      <point x="442" y="709"/>
      <point x="373" y="643"/>
      <point x="270" y="643" type="curve" smooth="yes"/>
      <point x="207" y="643" type="line"/>
      <point x="207" y="510" type="line"/>
      <point x="285" y="510" type="line" smooth="yes"/>
      <point x="403" y="510"/>
      <point x="475" y="442"/>
      <point x="475" y="330" type="curve" smooth="yes"/>
      <point x="475" y="209"/>
      <point x="424" y="147"/>
      <point x="293" y="139" type="curve"/>
      <point x="127" y="131"/>
      <point x="31" y="37"/>
      <point x="31" y="-119" type="curve" smooth="yes"/>
      <point x="31" y="-279"/>
      <point x="125" y="-367"/>
      <point x="293" y="-367" type="curve" smooth="yes"/>
      <point x="350" y="-367"/>
      <point x="420" y="-356"/>
      <point x="471" y="-356" type="curve" smooth="yes"/>
      <point x="512" y="-356"/>
      <point x="549" y="-365"/>
      <point x="571" y="-379" type="curve"/>
      <point x="571" y="-229" type="line"/>
      <point x="545" y="-217"/>
      <point x="512" y="-211"/>
      <point x="471" y="-211" type="curve" smooth="yes"/>
      <point x="414" y="-211"/>
      <point x="367" y="-221"/>
      <point x="307" y="-221" type="curve" smooth="yes"/>
      <point x="225" y="-221"/>
      <point x="190" y="-188"/>
      <point x="190" y="-119" type="curve" smooth="yes"/>
      <point x="190" y="-47"/>
      <point x="231" y="-12"/>
      <point x="328" y="-6" type="curve" smooth="yes"/>
      <point x="541" y="6"/>
      <point x="643" y="125"/>
      <point x="643" y="317" type="curve" smooth="yes"/>
      <point x="643" y="446"/>
      <point x="582" y="541"/>
      <point x="451" y="582" type="curve"/>
      <point x="451" y="590" type="line"/>
      <point x="547" y="629"/>
      <point x="606" y="721"/>
      <point x="606" y="836" type="curve" smooth="yes"/>
      <point x="606" y="971"/>
      <point x="541" y="1067"/>
      <point x="420" y="1102" type="curve"/>
      <point x="465" y="1196"/>
      <point x="508" y="1241"/>
      <point x="549" y="1241" type="curve" smooth="yes"/>
      <point x="563" y="1241"/>
      <point x="578" y="1237"/>
      <point x="590" y="1231" type="curve"/>
      <point x="590" y="1341" type="line"/>
      <point x="569" y="1352"/>
      <point x="547" y="1356"/>
    </contour>
  </outline>
</glyph>
<glyph name="uni0472" format="2">
  <advance width="1139"/>
  <unicode hex="0472"/>
  <anchor x="569" y="0" name="bottom"/>
  <anchor x="569" y="1462" name="top"/>
  <outline>
    <contour>
      <point x="1038" y="733" type="curve" smooth="yes"/>
      <point x="1038" y="1153"/>
      <point x="907" y="1483"/>
      <point x="571" y="1483" type="curve" smooth="yes"/>
      <point x="262" y="1483"/>
      <point x="102" y="1235"/>
      <point x="102" y="735" type="curve" smooth="yes"/>
      <point x="102" y="319"/>
      <point x="229" y="-20"/>
      <point x="569" y="-20" type="curve" smooth="yes"/>
      <point x="907" y="-20"/>
      <point x="1038" y="311"/>
    </contour>
    <contour>
      <point x="571" y="135" type="curve" smooth="yes"/>
      <point x="387" y="135"/>
      <point x="287" y="326"/>
      <point x="281" y="670" type="curve"/>
      <point x="860" y="670" type="line"/>
      <point x="852" y="317"/>
      <point x="752" y="135"/>
    </contour>
    <contour>
      <point x="571" y="1329" type="curve" smooth="yes"/>
      <point x="750" y="1329"/>
      <point x="846" y="1157"/>
      <point x="858" y="819" type="curve"/>
      <point x="281" y="819" type="line"/>
      <point x="293" y="1159"/>
      <point x="393" y="1329"/>
    </contour>
  </outline>
</glyph>
<glyph name="uni048A" format="2">
  <advance width="1210"/>
  <unicode hex="048A"/>
  <anchor x="586" y="-395" name="bottom"/>
  <anchor x="586" y="1884" name="top"/>
  <outline>
    <contour>
      <point x="856" y="-395" type="line"/>
      <point x="1044" y="-395" type="line"/>
      <point x="1169" y="162" type="line"/>
      <point x="1026" y="162" type="line"/>
      <point x="1026" y="1462" type="line"/>
      <point x="813" y="1462" type="line"/>
      <point x="315" y="289" type="line"/>
      <point x="307" y="289" type="line"/>
      <point x="315" y="428"/>
      <point x="317" y="512"/>
      <point x="317" y="588" type="curve" smooth="yes"/>
      <point x="317" y="1462" type="line"/>
      <point x="150" y="1462" type="line"/>
      <point x="150" y="0" type="line"/>
      <point x="360" y="0" type="line"/>
      <point x="864" y="1188" type="line"/>
      <point x="872" y="1188" type="line"/>
      <point x="862" y="1077"/>
      <point x="858" y="979"/>
      <point x="858" y="895" type="curve" smooth="yes"/>
      <point x="858" y="0" type="line"/>
      <point x="985" y="0" type="line"/>
    </contour>
    <contour>
      <point x="586" y="1577" type="curve" smooth="yes"/>
      <point x="768" y="1577"/>
      <point x="868" y="1679"/>
      <point x="883" y="1884" type="curve"/>
      <point x="745" y="1884" type="line"/>
      <point x="733" y="1749"/>
      <point x="688" y="1690"/>
      <point x="586" y="1690" type="curve" smooth="yes"/>
      <point x="479" y="1690"/>
      <point x="436" y="1747"/>
      <point x="428" y="1884" type="curve"/>
      <point x="291" y="1884" type="line"/>
      <point x="305" y="1671"/>
      <point x="399" y="1577"/>
    </contour>
  </outline>
</glyph>
<glyph name="uni0497" format="2">
  <advance width="1198"/>
  <unicode hex="0497"/>
  <anchor x="600" y="-383" name="bottom"/>
  <anchor x="600" y="1100" name="top"/>
  <outline>
    <contour>
      <point x="1126" y="1100" type="line"/>
      <point x="946" y="1100" type="line"/>
      <point x="662" y="578" type="line"/>
      <point x="662" y="1100" type="line"/>
      <point x="498" y="1100" type="line"/>
      <point x="498" y="578" type="line"/>
      <point x="215" y="1100" type="line"/>
      <point x="35" y="1100" type="line"/>
      <point x="336" y="580" type="line"/>
      <point x="8" y="0" type="line"/>
      <point x="195" y="0" type="line"/>
      <point x="498" y="569" type="line"/>
      <point x="498" y="0" type="line"/>
      <point x="662" y="0" type="line"/>
      <point x="662" y="569" type="line"/>
      <point x="965" y="0" type="line"/>
      <point x="1018" y="0" type="line"/>
      <point x="1018" y="-383" type="line"/>
      <point x="1180" y="-383" type="line"/>
      <point x="1180" y="145" type="line"/>
      <point x="1071" y="145" type="line"/>
      <point x="825" y="580" type="line"/>
    </contour>
  </outline>
</glyph>
<glyph name="uni049A" format="2">
  <advance width="975"/>
  <unicode hex="049A"/>
  <anchor x="487" y="-395" name="bottom"/>
  <anchor x="487" y="1462" name="top"/>
  <outline>
    <contour>
      <point x="891" y="1462" type="line"/>
      <point x="705" y="1462" type="line"/>
      <point x="322" y="770" type="line"/>
      <point x="322" y="1462" type="line"/>
      <point x="150" y="1462" type="line"/>
      <point x="150" y="0" type="line"/>
      <point x="322" y="0" type="line"/>
      <point x="322" y="756" type="line"/>
      <point x="719" y="0" type="line"/>
      <point x="786" y="0" type="line"/>
      <point x="786" y="-395" type="line"/>
      <point x="952" y="-395" type="line"/>
      <point x="952" y="156" type="line"/>
      <point x="836" y="156" type="line"/>
      <point x="498" y="764" type="line"/>
    </contour>
  </outline>
</glyph>
<glyph name="uni04A0" format="2">
  <advance width="1055"/>
  <unicode hex="04A0"/>
  <anchor x="528" y="0" name="bottom"/>
  <anchor x="528" y="1462" name="top"/>
  <outline>
    <contour>
      <point x="1038" y="1462" type="line"/>
      <point x="852" y="1462" type="line"/>
      <point x="469" y="762" type="line"/>
      <point x="469" y="1462" type="line"/>
      <point x="20" y="1462" type="line"/>
      <point x="20" y="1307" type="line"/>
      <point x="297" y="1307" type="line"/>
      <point x="297" y="0" type="line"/>
      <point x="469" y="0" type="line"/>
      <point x="469" y="752" type="line"/>
      <point x="864" y="0" type="line"/>
      <point x="1061" y="0" type="line"/>
      <point x="639" y="760" type="line"/>
    </contour>
  </outline>
</glyph>
<glyph name="uni04A6" format="2">
  <advance width="1559"/>
  <unicode hex="04A6"/>
  <anchor x="780" y="-506" name="bottom"/>
  <anchor x="780" y="1462" name="top"/>
  <outline>
    <contour>
      <point x="897" y="1462" type="line"/>
      <point x="150" y="1462" type="line"/>
      <point x="150" y="0" type="line"/>
      <point x="322" y="0" type="line"/>
      <point x="322" y="1307" type="line"/>
      <point x="725" y="1307" type="line"/>
      <point x="725" y="0" type="line"/>
      <point x="897" y="0" type="line"/>
      <point x="897" y="633" type="line"/>
      <point x="938" y="645"/>
      <point x="979" y="651"/>
      <point x="1020" y="651" type="curve" smooth="yes"/>
      <point x="1219" y="651"/>
      <point x="1298" y="434"/>
      <point x="1298" y="160" type="curve" smooth="yes"/>
      <point x="1298" y="-104"/>
      <point x="1231" y="-350"/>
      <point x="1049" y="-350" type="curve" smooth="yes"/>
      <point x="995" y="-350"/>
      <point x="940" y="-334"/>
      <point x="883" y="-301" type="curve"/>
      <point x="883" y="-461" type="line"/>
      <point x="934" y="-489"/>
      <point x="1004" y="-506"/>
      <point x="1073" y="-506" type="curve" smooth="yes"/>
      <point x="1350" y="-506"/>
      <point x="1475" y="-215"/>
      <point x="1475" y="160" type="curve" smooth="yes"/>
      <point x="1475" y="510"/>
      <point x="1339" y="805"/>
      <point x="1044" y="805" type="curve" smooth="yes"/>
      <point x="995" y="805"/>
      <point x="946" y="797"/>
      <point x="897" y="782" type="curve"/>
    </contour>
  </outline>
</glyph>
<glyph name="uni04B4" format="2">
  <advance width="1280"/>
  <unicode hex="04B4"/>
  <anchor x="641" y="-395" name="bottom"/>
  <anchor x="641" y="1462" name="top"/>
  <outline>
    <contour>
      <point x="1067" y="-395" type="line"/>
      <point x="1233" y="-395" type="line"/>
      <point x="1233" y="156" type="line"/>
      <point x="1098" y="156" type="line"/>
      <point x="1098" y="1462" type="line"/>
      <point x="926" y="1462" type="line"/>
      <point x="926" y="156" type="line"/>
      <point x="473" y="156" type="line"/>
      <point x="473" y="1307" type="line"/>
      <point x="748" y="1307" type="line"/>
      <point x="748" y="1462" type="line"/>
      <point x="20" y="1462" type="line"/>
      <point x="20" y="1307" type="line"/>
      <point x="301" y="1307" type="line"/>
      <point x="301" y="0" type="line"/>
      <point x="1067" y="0" type="line"/>
    </contour>
  </outline>
</glyph>
<glyph name="uni04B7" format="2">
  <advance width="952"/>
  <unicode hex="04B7"/>
  <anchor x="477" y="-383" name="bottom"/>
  <anchor x="477" y="1100" name="top"/>
  <outline>
    <contour>
      <point x="795" y="1100" type="line"/>
      <point x="631" y="1100" type="line"/>
      <point x="631" y="616" type="line"/>
      <point x="563" y="551"/>
      <point x="479" y="504"/>
      <point x="395" y="504" type="curve" smooth="yes"/>
      <point x="319" y="504"/>
      <point x="274" y="553"/>
      <point x="274" y="664" type="curve" smooth="yes"/>
      <point x="274" y="1100" type="line"/>
      <point x="109" y="1100" type="line"/>
      <point x="109" y="676" type="line" smooth="yes"/>
      <point x="109" y="463"/>
      <point x="188" y="360"/>
      <point x="358" y="360" type="curve" smooth="yes"/>
      <point x="455" y="360"/>
      <point x="553" y="399"/>
      <point x="631" y="471" type="curve"/>
      <point x="631" y="0" type="line"/>
      <point x="752" y="0" type="line"/>
      <point x="752" y="-383" type="line"/>
      <point x="915" y="-383" type="line"/>
      <point x="915" y="145" type="line"/>
      <point x="795" y="145" type="line"/>
    </contour>
  </outline>
</glyph>
<glyph name="uni04C3" format="2">
  <advance width="1012"/>
  <unicode hex="04C3"/>
  <anchor x="506" y="-506" name="bottom"/>
  <anchor x="506" y="1462" name="top"/>
  <outline>
    <contour>
      <point x="891" y="1462" type="line"/>
      <point x="705" y="1462" type="line"/>
      <point x="418" y="956" type="line"/>
      <point x="387" y="899"/>
      <point x="354" y="834"/>
      <point x="322" y="776" type="curve"/>
      <point x="322" y="1462" type="line"/>
      <point x="150" y="1462" type="line"/>
      <point x="150" y="0" type="line"/>
      <point x="322" y="0" type="line"/>
      <point x="322" y="637" type="line"/>
      <point x="365" y="651"/>
      <point x="410" y="655"/>
      <point x="453" y="655" type="curve" smooth="yes"/>
      <point x="666" y="655"/>
      <point x="752" y="434"/>
      <point x="752" y="160" type="curve" smooth="yes"/>
      <point x="752" y="-104"/>
      <point x="684" y="-350"/>
      <point x="502" y="-350" type="curve" smooth="yes"/>
      <point x="449" y="-350"/>
      <point x="393" y="-334"/>
      <point x="336" y="-301" type="curve"/>
      <point x="336" y="-461" type="line"/>
      <point x="387" y="-489"/>
      <point x="459" y="-506"/>
      <point x="526" y="-506" type="curve" smooth="yes"/>
      <point x="803" y="-506"/>
      <point x="928" y="-215"/>
      <point x="928" y="158" type="curve" smooth="yes"/>
      <point x="928" y="514"/>
      <point x="788" y="782"/>
      <point x="528" y="795" type="curve" smooth="yes"/>
      <point x="514" y="795"/>
      <point x="502" y="795"/>
      <point x="498" y="795" type="curve"/>
    </contour>
  </outline>
</glyph>
<glyph name="uni04CE" format="2">
  <advance width="1198"/>
  <unicode hex="04CE"/>
  <anchor x="600" y="-383" name="bottom"/>
  <anchor x="600" y="1100" name="top"/>
  <outline>
    <contour>
      <point x="1167" y="147" type="line"/>
      <point x="1034" y="147" type="line"/>
      <point x="1034" y="1100" type="line"/>
      <point x="799" y="1100" type="line"/>
      <point x="582" y="250" type="line"/>
      <point x="369" y="1100" type="line"/>
      <point x="133" y="1100" type="line"/>
      <point x="133" y="0" type="line"/>
      <point x="289" y="0" type="line"/>
      <point x="289" y="600" type="line" smooth="yes"/>
      <point x="289" y="692"/>
      <point x="285" y="786"/>
      <point x="276" y="877" type="curve"/>
      <point x="285" y="877" type="line"/>
      <point x="508" y="0" type="line"/>
      <point x="653" y="0" type="line"/>
      <point x="879" y="877" type="line"/>
      <point x="887" y="877" type="line"/>
      <point x="877" y="768"/>
      <point x="874" y="676"/>
      <point x="874" y="596" type="curve" smooth="yes"/>
      <point x="874" y="0" type="line"/>
      <point x="995" y="0" type="line"/>
      <point x="881" y="-383" type="line"/>
      <point x="1049" y="-383" type="line"/>
    </contour>
  </outline>
</glyph>
<glyph name="uni04F6" format="2">
  <advance width="752"/>
  <unicode hex="04F6"/>
  <anchor x="377" y="-395" name="bottom"/>
  <anchor x="377" y="1462" name="top"/>
  <outline>
    <contour>
      <point x="733" y="1462" type="line"/>
      <point x="150" y="1462" type="line"/>
      <point x="150" y="0" type="line"/>
      <point x="289" y="0" type="line"/>
      <point x="289" y="-395" type="line"/>
      <point x="457" y="-395" type="line"/>
      <point x="457" y="156" type="line"/>
      <point x="322" y="156" type="line"/>
      <point x="322" y="1309" type="line"/>
      <point x="733" y="1309" type="line"/>
    </contour>
  </outline>
</glyph>
<glyph name="uni04FC" format="2">
  <advance width="887"/>
  <unicode hex="04FC"/>
  <anchor x="444" y="-393" name="bottom"/>
  <anchor x="444" y="1462" name="top"/>
  <outline>
    <contour>
      <point x="641" y="-393" type="curve" smooth="yes"/>
      <point x="784" y="-393"/>
      <point x="868" y="-301"/>
      <point x="868" y="-121" type="curve" smooth="yes"/>
      <point x="868" y="156" type="line"/>
      <point x="741" y="156" type="line"/>
      <point x="520" y="752" type="line"/>
      <point x="793" y="1462" type="line"/>
      <point x="612" y="1462" type="line"/>
      <point x="424" y="915" type="line"/>
      <point x="229" y="1462" type="line"/>
      <point x="51" y="1462" type="line"/>
      <point x="328" y="764" type="line"/>
      <point x="14" y="0" type="line"/>
      <point x="193" y="0" type="line"/>
      <point x="420" y="598" type="line"/>
      <point x="623" y="0" type="line"/>
      <point x="702" y="0" type="line"/>
      <point x="702" y="-123" type="line" smooth="yes"/>
      <point x="702" y="-213"/>
      <point x="672" y="-254"/>
      <point x="602" y="-254" type="curve" smooth="yes"/>
      <point x="573" y="-254"/>
      <point x="543" y="-248"/>
      <point x="514" y="-236" type="curve"/>
      <point x="514" y="-375" type="line"/>
      <point x="547" y="-387"/>
      <point x="588" y="-393"/>
    </contour>
  </outline>
</glyph>
<glyph name="uni0504" format="2">
  <advance width="1391"/>
  <unicode hex="0504"/>
  <anchor x="696" y="0" name="bottom"/>
  <anchor x="696" y="1462" name="top"/>
  <outline>
    <contour>
      <point x="385" y="1483" type="curve" smooth="yes"/>
      <point x="250" y="1483"/>
      <point x="156" y="1446"/>
      <point x="61" y="1358" type="curve"/>
      <point x="145" y="1231" type="line"/>
      <point x="203" y="1292"/>
      <point x="276" y="1327"/>
      <point x="354" y="1327" type="curve" smooth="yes"/>
      <point x="494" y="1327"/>
      <point x="557" y="1255"/>
      <point x="557" y="1106" type="curve" smooth="yes"/>
      <point x="557" y="922"/>
      <point x="467" y="838"/>
      <point x="285" y="836" type="curve" smooth="yes"/>
      <point x="174" y="836" type="line"/>
      <point x="174" y="682" type="line"/>
      <point x="283" y="682" type="line" smooth="yes"/>
      <point x="489" y="682"/>
      <point x="586" y="594"/>
      <point x="586" y="399" type="curve" smooth="yes"/>
      <point x="586" y="100"/>
      <point x="686" y="-20"/>
      <point x="924" y="-20" type="curve" smooth="yes"/>
      <point x="1157" y="-20"/>
      <point x="1257" y="109"/>
      <point x="1257" y="401" type="curve" smooth="yes"/>
      <point x="1257" y="848" type="line"/>
      <point x="1085" y="848" type="line"/>
      <point x="1085" y="379" type="line" smooth="yes"/>
      <point x="1085" y="211"/>
      <point x="1036" y="135"/>
      <point x="924" y="135" type="curve" smooth="yes"/>
      <point x="805" y="135"/>
      <point x="760" y="209"/>
      <point x="760" y="393" type="curve" smooth="yes"/>
      <point x="760" y="606"/>
      <point x="666" y="733"/>
      <point x="479" y="756" type="curve"/>
      <point x="479" y="764" type="line"/>
      <point x="641" y="805"/>
      <point x="731" y="938"/>
      <point x="731" y="1126" type="curve" smooth="yes"/>
      <point x="731" y="1354"/>
      <point x="598" y="1483"/>
    </contour>
  </outline>
</glyph>
<glyph name="uni0507" format="2">
  <advance width="782"/>
  <unicode hex="0507"/>
  <anchor x="391" y="-383" name="bottom"/>
  <anchor x="391" y="1100" name="top"/>
  <outline>
    <contour>
      <point x="293" y="1120" type="curve" smooth="yes"/>
      <point x="205" y="1120"/>
      <point x="127" y="1100"/>
      <point x="39" y="1051" type="curve"/>
      <point x="100" y="926" type="line"/>
      <point x="164" y="963"/>
      <point x="223" y="981"/>
      <point x="274" y="981" type="curve" smooth="yes"/>
      <point x="367" y="981"/>
      <point x="422" y="928"/>
      <point x="422" y="825" type="curve" smooth="yes"/>
      <point x="422" y="717"/>
      <point x="356" y="643"/>
      <point x="252" y="643" type="curve" smooth="yes"/>
      <point x="188" y="643" type="line"/>
      <point x="188" y="510" type="line"/>
      <point x="270" y="510" type="line" smooth="yes"/>
      <point x="395" y="510"/>
      <point x="461" y="432"/>
      <point x="461" y="324" type="curve" smooth="yes"/>
      <point x="461" y="0" type="line"/>
      <point x="584" y="0" type="line"/>
      <point x="584" y="-383" type="line"/>
      <point x="745" y="-383" type="line"/>
      <point x="745" y="145" type="line"/>
      <point x="625" y="145" type="line"/>
      <point x="625" y="309" type="line" smooth="yes"/>
      <point x="625" y="453"/>
      <point x="557" y="553"/>
      <point x="432" y="582" type="curve"/>
      <point x="432" y="590" type="line"/>
      <point x="522" y="627"/>
      <point x="586" y="719"/>
      <point x="586" y="838" type="curve" smooth="yes"/>
      <point x="586" y="1014"/>
      <point x="475" y="1120"/>
    </contour>
  </outline>
</glyph>
<glyph name="uni050B" format="2">
  <advance width="1372"/>
  <unicode hex="050B"/>
  <anchor x="686" y="0" name="bottom"/>
  <anchor x="686" y="1100" name="top"/>
  <outline>
    <contour>
      <point x="299" y="1100" type="line"/>
      <point x="133" y="1100" type="line"/>
      <point x="133" y="0" type="line"/>
      <point x="299" y="0" type="line"/>
      <point x="299" y="500" type="line"/>
      <point x="645" y="500" type="line"/>
      <point x="645" y="367" type="line" smooth="yes"/>
      <point x="645" y="96"/>
      <point x="741" y="-20"/>
      <point x="952" y="-20" type="curve" smooth="yes"/>
      <point x="1171" y="-20"/>
      <point x="1260" y="111"/>
      <point x="1260" y="362" type="curve" smooth="yes"/>
      <point x="1260" y="700" type="line"/>
      <point x="1094" y="700" type="line"/>
      <point x="1094" y="369" type="line" smooth="yes"/>
      <point x="1094" y="197"/>
      <point x="1053" y="123"/>
      <point x="954" y="123" type="curve" smooth="yes"/>
      <point x="856" y="123"/>
      <point x="811" y="193"/>
      <point x="811" y="362" type="curve" smooth="yes"/>
      <point x="811" y="1100" type="line"/>
      <point x="645" y="1100" type="line"/>
      <point x="645" y="643" type="line"/>
      <point x="299" y="643" type="line"/>
    </contour>
  </outline>
</glyph>
<glyph name="uni0518" format="2">
  <advance width="1298"/>
  <unicode hex="0518"/>
  <anchor x="649" y="0" name="bottom"/>
  <anchor x="649" y="1462" name="top"/>
  <outline>
    <contour>
      <point x="29" y="0" type="line"/>
      <point x="219" y="0" type="line"/>
      <point x="479" y="612" type="line"/>
      <point x="629" y="612" type="line"/>
      <point x="629" y="0" type="line"/>
      <point x="1206" y="0" type="line"/>
      <point x="1206" y="156" type="line"/>
      <point x="797" y="156" type="line"/>
      <point x="797" y="686" type="line"/>
      <point x="1182" y="686" type="line"/>
      <point x="1182" y="840" type="line"/>
      <point x="797" y="840" type="line"/>
      <point x="797" y="1309" type="line"/>
      <point x="1206" y="1309" type="line"/>
      <point x="1206" y="1462" type="line"/>
      <point x="539" y="1462" type="line" smooth="yes"/>
      <point x="240" y="1462"/>
      <point x="98" y="1325"/>
      <point x="98" y="1051" type="curve" smooth="yes"/>
      <point x="98" y="858"/>
      <point x="164" y="727"/>
      <point x="324" y="655" type="curve"/>
    </contour>
    <contour>
      <point x="514" y="756" type="line" smooth="yes"/>
      <point x="360" y="756"/>
      <point x="274" y="852"/>
      <point x="274" y="1042" type="curve" smooth="yes"/>
      <point x="274" y="1229"/>
      <point x="356" y="1307"/>
      <point x="535" y="1307" type="curve" smooth="yes"/>
      <point x="627" y="1307" type="line"/>
      <point x="627" y="756" type="line"/>
    </contour>
  </outline>
</glyph>
<glyph name="uni051F" format="2">
  <advance width="809"/>
  <unicode hex="051F"/>
  <anchor x="406" y="0" name="bottom"/>
  <anchor x="406" y="1100" name="top"/>
  <outline>
    <contour>
      <point x="338" y="934" type="line"/>
      <point x="705" y="686" type="line"/>
      <point x="762" y="768" type="line"/>
      <point x="395" y="1020" type="line"/>
    </contour>
    <component base="afii10076"/>
  </outline>
</glyph>
<glyph name="uni0522" format="2">
  <advance width="1606"/>
  <unicode hex="0522"/>
  <anchor x="805" y="-506" name="bottom"/>
  <anchor x="805" y="1462" name="top"/>
  <outline>
    <contour>
      <point x="944" y="784" type="curve"/>
      <point x="944" y="1462" type="line"/>
      <point x="772" y="1462" type="line"/>
      <point x="772" y="842" type="line"/>
      <point x="322" y="842" type="line"/>
      <point x="322" y="1462" type="line"/>
      <point x="150" y="1462" type="line"/>
      <point x="150" y="0" type="line"/>
      <point x="322" y="0" type="line"/>
      <point x="322" y="686" type="line"/>
      <point x="772" y="686" type="line"/>
      <point x="772" y="0" type="line"/>
      <point x="944" y="0" type="line"/>
      <point x="944" y="633" type="line"/>
      <point x="985" y="645"/>
      <point x="1026" y="651"/>
      <point x="1067" y="651" type="curve" smooth="yes"/>
      <point x="1266" y="651"/>
      <point x="1346" y="434"/>
      <point x="1346" y="160" type="curve" smooth="yes"/>
      <point x="1346" y="-104"/>
      <point x="1278" y="-350"/>
      <point x="1096" y="-350" type="curve" smooth="yes"/>
      <point x="1042" y="-350"/>
      <point x="987" y="-334"/>
      <point x="930" y="-301" type="curve"/>
      <point x="930" y="-461" type="line"/>
      <point x="981" y="-489"/>
      <point x="1053" y="-506"/>
      <point x="1120" y="-506" type="curve" smooth="yes"/>
      <point x="1397" y="-506"/>
      <point x="1522" y="-215"/>
      <point x="1522" y="160" type="curve" smooth="yes"/>
      <point x="1522" y="516"/>
      <point x="1382" y="805"/>
      <point x="1092" y="805" type="curve" smooth="yes"/>
      <point x="1040" y="805"/>
      <point x="991" y="797"/>
    </contour>
  </outline>
</glyph>
<glyph name="uni0526" format="2">
  <advance width="1110"/>
  <unicode hex="0526"/>
  <anchor x="555" y="-395" name="bottom"/>
  <anchor x="555" y="1462" name="top"/>
  <outline>
    <contour>
      <point x="897" y="-395" type="line"/>
      <point x="1065" y="-395" type="line"/>
      <point x="1065" y="156" type="line"/>
      <point x="930" y="156" type="line"/>
      <point x="930" y="580" type="line" smooth="yes"/>
      <point x="930" y="831"/>
      <point x="827" y="954"/>
      <point x="637" y="954" type="curve" smooth="yes"/>
      <point x="543" y="954"/>
      <point x="430" y="924"/>
      <point x="322" y="864" type="curve"/>
      <point x="322" y="1462" type="line"/>
      <point x="150" y="1462" type="line"/>
      <point x="150" y="0" type="line"/>
      <point x="322" y="0" type="line"/>
      <point x="322" y="721" type="line"/>
      <point x="420" y="774"/>
      <point x="489" y="799"/>
      <point x="590" y="799" type="curve" smooth="yes"/>
      <point x="705" y="799"/>
      <point x="756" y="723"/>
      <point x="756" y="551" type="curve" smooth="yes"/>
      <point x="756" y="0" type="line"/>
      <point x="897" y="0" type="line"/>
    </contour>
  </outline>
</glyph>
<glyph name="uni1AB1" format="2">
  <unicode hex="1AB1"/>
  <anchor x="0" y="1100" name="_top"/>
  <anchor x="4" y="1659" name="top"/>
  <outline>
    <contour>
      <point x="0" y="1247" type="curve" smooth="yes"/>
      <point x="123" y="1247"/>
      <point x="203" y="1331"/>
      <point x="203" y="1456" type="curve" smooth="yes"/>
      <point x="203" y="1579"/>
      <point x="119" y="1659"/>
      <point x="0" y="1659" type="curve" smooth="yes"/>
      <point x="-123" y="1659"/>
      <point x="-203" y="1577"/>
      <point x="-203" y="1452" type="curve" smooth="yes"/>
      <point x="-203" y="1329"/>
      <point x="-123" y="1247"/>
    </contour>
    <contour>
      <point x="-387" y="1325" type="curve" smooth="yes"/>
      <point x="-328" y="1325"/>
      <point x="-295" y="1366"/>
      <point x="-295" y="1436" type="curve" smooth="yes"/>
      <point x="-295" y="1507"/>
      <point x="-328" y="1548"/>
      <point x="-387" y="1548" type="curve" smooth="yes"/>
      <point x="-449" y="1548"/>
      <point x="-479" y="1507"/>
      <point x="-479" y="1436" type="curve" smooth="yes"/>
      <point x="-479" y="1366"/>
      <point x="-444" y="1325"/>
    </contour>
    <contour>
      <point x="0" y="1348" type="curve" smooth="yes"/>
      <point x="-63" y="1348"/>
      <point x="-100" y="1389"/>
      <point x="-100" y="1452" type="curve" smooth="yes"/>
      <point x="-100" y="1516"/>
      <point x="-57" y="1561"/>
      <point x="0" y="1561" type="curve" smooth="yes"/>
      <point x="61" y="1561"/>
      <point x="100" y="1516"/>
      <point x="100" y="1452" type="curve" smooth="yes"/>
      <point x="100" y="1389"/>
      <point x="57" y="1348"/>
    </contour>
    <contour>
      <point x="387" y="1325" type="curve" smooth="yes"/>
      <point x="444" y="1325"/>
      <point x="479" y="1366"/>
      <point x="479" y="1436" type="curve" smooth="yes"/>
      <point x="479" y="1507"/>
      <point x="446" y="1548"/>
      <point x="387" y="1548" type="curve" smooth="yes"/>
      <point x="326" y="1548"/>
      <point x="295" y="1507"/>
      <point x="295" y="1436" type="curve" smooth="yes"/>
      <point x="295" y="1366"/>
      <point x="328" y="1325"/>
    </contour>
  </outline>
</glyph>
<glyph name="uni1D09" format="2">
  <advance width="432"/>
  <unicode hex="1D09"/>
  <anchor x="217" y="-414" name="bottom"/>
  <anchor x="217" y="1100" name="top"/>
  <outline>
    <contour>
      <point x="299" y="1100" type="line"/>
      <point x="133" y="1100" type="line"/>
      <point x="133" y="0" type="line"/>
      <point x="299" y="0" type="line"/>
    </contour>
    <contour>
      <point x="213" y="-180" type="curve" smooth="yes"/>
      <point x="152" y="-180"/>
      <point x="119" y="-221"/>
      <point x="119" y="-295" type="curve" smooth="yes"/>
      <point x="119" y="-373"/>
      <point x="150" y="-414"/>
      <point x="213" y="-414" type="curve" smooth="yes"/>
      <point x="276" y="-414"/>
      <point x="311" y="-373"/>
      <point x="311" y="-295" type="curve" smooth="yes"/>
      <point x="311" y="-221"/>
      <point x="276" y="-180"/>
    </contour>
  </outline>
</glyph>
<glyph name="uni1D17" format="2">
  <advance width="911"/>
  <unicode hex="1D17"/>
  <anchor x="457" y="0" name="bottom"/>
  <anchor x="457" y="549" name="top"/>
  <outline>
    <contour>
      <point x="825" y="549" type="curve"/>
      <point x="655" y="549" type="line"/>
      <point x="655" y="264"/>
      <point x="592" y="125"/>
      <point x="455" y="125" type="curve" smooth="yes"/>
      <point x="317" y="125"/>
      <point x="256" y="270"/>
      <point x="256" y="549" type="curve"/>
      <point x="86" y="549" type="line"/>
      <point x="86" y="205"/>
      <point x="209" y="-20"/>
      <point x="453" y="-20" type="curve" smooth="yes"/>
      <point x="709" y="-20"/>
      <point x="825" y="207"/>
    </contour>
  </outline>
</glyph>
<glyph name="uni1D2B" format="2">
  <advance width="879"/>
  <unicode hex="1D2B"/>
  <outline>
    <contour>
      <point x="745" y="0" type="line"/>
      <point x="745" y="1100" type="line"/>
      <point x="221" y="1100" type="line"/>
      <point x="209" y="784"/>
      <point x="193" y="549"/>
      <point x="166" y="391" type="curve" smooth="yes"/>
      <point x="137" y="219"/>
      <point x="98" y="135"/>
      <point x="45" y="135" type="curve" smooth="yes"/>
      <point x="27" y="135"/>
      <point x="10" y="139"/>
      <point x="0" y="145" type="curve"/>
      <point x="0" y="2" type="line"/>
      <point x="25" y="-8"/>
      <point x="49" y="-12"/>
      <point x="78" y="-12" type="curve" smooth="yes"/>
      <point x="209" y="-12"/>
      <point x="279" y="102"/>
      <point x="322" y="356" type="curve" smooth="yes"/>
      <point x="346" y="506"/>
      <point x="362" y="705"/>
      <point x="375" y="950" type="curve"/>
      <point x="580" y="950" type="line"/>
      <point x="580" y="0" type="line"/>
    </contour>
  </outline>
</glyph>
<glyph name="uni1D6C" format="2">
  <advance width="946"/>
  <unicode hex="1D6C"/>
  <anchor x="489" y="6" name="bottom"/>
  <anchor x="524" y="1579" name="top"/>
  <outline>
    <contour>
      <point x="862" y="551" type="curve" smooth="yes"/>
      <point x="862" y="922"/>
      <point x="750" y="1118"/>
      <point x="541" y="1118" type="curve" smooth="yes"/>
      <point x="440" y="1118"/>
      <point x="360" y="1065"/>
      <point x="301" y="954" type="curve"/>
      <point x="293" y="954" type="line"/>
      <point x="297" y="1012"/>
      <point x="299" y="1063"/>
      <point x="299" y="1106" type="curve" smooth="yes"/>
      <point x="299" y="1231" type="line"/>
      <point x="319" y="1221"/>
      <point x="340" y="1214"/>
      <point x="362" y="1214" type="curve" smooth="yes"/>
      <point x="467" y="1214"/>
      <point x="532" y="1303"/>
      <point x="541" y="1458" type="curve"/>
      <point x="438" y="1458" type="line"/>
      <point x="428" y="1384"/>
      <point x="406" y="1337"/>
      <point x="367" y="1337" type="curve" smooth="yes"/>
      <point x="346" y="1337"/>
      <point x="322" y="1352"/>
      <point x="299" y="1368" type="curve"/>
      <point x="299" y="1556" type="line"/>
      <point x="133" y="1556" type="line"/>
      <point x="133" y="1444" type="line"/>
      <point x="117" y="1452"/>
      <point x="100" y="1456"/>
      <point x="82" y="1456" type="curve" smooth="yes"/>
      <point x="-33" y="1456"/>
      <point x="-90" y="1370"/>
      <point x="-100" y="1212" type="curve"/>
      <point x="2" y="1212" type="line"/>
      <point x="10" y="1286"/>
      <point x="41" y="1331"/>
      <point x="82" y="1331" type="curve" smooth="yes"/>
      <point x="94" y="1331"/>
      <point x="115" y="1321"/>
      <point x="133" y="1309" type="curve"/>
      <point x="133" y="0" type="line"/>
      <point x="268" y="0" type="line"/>
      <point x="291" y="139" type="line"/>
      <point x="301" y="139" type="line"/>
      <point x="365" y="29"/>
      <point x="442" y="-20"/>
      <point x="547" y="-20" type="curve" smooth="yes"/>
      <point x="750" y="-20"/>
      <point x="862" y="184"/>
    </contour>
    <contour>
      <point x="692" y="553" type="curve" smooth="yes"/>
      <point x="692" y="258"/>
      <point x="631" y="123"/>
      <point x="506" y="123" type="curve" smooth="yes"/>
      <point x="367" y="123"/>
      <point x="299" y="254"/>
      <point x="299" y="526" type="curve" smooth="yes"/>
      <point x="299" y="565" type="line" smooth="yes"/>
      <point x="299" y="799"/>
      <point x="338" y="973"/>
      <point x="504" y="973" type="curve" smooth="yes"/>
      <point x="635" y="973"/>
      <point x="692" y="831"/>
    </contour>
  </outline>
</glyph>
<glyph name="uni1D6E" format="2">
  <advance width="674"/>
  <unicode hex="1D6E"/>
  <outline>
    <contour>
      <point x="246" y="0" type="line"/>
      <point x="410" y="0" type="line"/>
      <point x="410" y="461" type="line"/>
      <point x="430" y="451"/>
      <point x="453" y="444"/>
      <point x="473" y="444" type="curve" smooth="yes"/>
      <point x="573" y="444"/>
      <point x="643" y="532"/>
      <point x="653" y="686" type="curve"/>
      <point x="549" y="686" type="line"/>
      <point x="539" y="616"/>
      <point x="518" y="567"/>
      <point x="477" y="567" type="curve" smooth="yes"/>
      <point x="459" y="567"/>
      <point x="434" y="582"/>
      <point x="410" y="598" type="curve"/>
      <point x="410" y="961" type="line"/>
      <point x="584" y="961" type="line"/>
      <point x="584" y="1100" type="line"/>
      <point x="410" y="1100" type="line"/>
      <point x="410" y="1176" type="line" smooth="yes"/>
      <point x="414" y="1362"/>
      <point x="436" y="1421"/>
      <point x="516" y="1421" type="curve" smooth="yes"/>
      <point x="547" y="1421"/>
      <point x="582" y="1413"/>
      <point x="616" y="1401" type="curve"/>
      <point x="657" y="1534" type="line"/>
      <point x="602" y="1556"/>
      <point x="553" y="1567"/>
      <point x="494" y="1567" type="curve" smooth="yes"/>
      <point x="301" y="1567"/>
      <point x="246" y="1423"/>
      <point x="246" y="1169" type="curve" smooth="yes"/>
      <point x="246" y="1106" type="line"/>
      <point x="113" y="1049" type="line"/>
      <point x="113" y="961" type="line"/>
      <point x="246" y="961" type="line"/>
      <point x="246" y="674" type="line"/>
      <point x="229" y="680"/>
      <point x="211" y="684"/>
      <point x="193" y="684" type="curve" smooth="yes"/>
      <point x="66" y="684"/>
      <point x="23" y="571"/>
      <point x="10" y="442" type="curve"/>
      <point x="113" y="442" type="line"/>
      <point x="123" y="518"/>
      <point x="154" y="561"/>
      <point x="190" y="561" type="curve" smooth="yes"/>
      <point x="205" y="561"/>
      <point x="225" y="551"/>
      <point x="246" y="537" type="curve"/>
    </contour>
  </outline>
</glyph>
<glyph name="uni1D72" format="2">
  <advance width="731"/>
  <unicode hex="1D72"/>
  <outline>
    <contour>
      <point x="244" y="0" type="line"/>
      <point x="410" y="0" type="line"/>
      <point x="410" y="434" type="line"/>
      <point x="430" y="422"/>
      <point x="453" y="414"/>
      <point x="473" y="414" type="curve" smooth="yes"/>
      <point x="573" y="414"/>
      <point x="643" y="502"/>
      <point x="653" y="657" type="curve"/>
      <point x="549" y="657" type="line"/>
      <point x="539" y="586"/>
      <point x="518" y="537"/>
      <point x="477" y="537" type="curve" smooth="yes"/>
      <point x="455" y="537"/>
      <point x="432" y="553"/>
      <point x="410" y="567" type="curve"/>
      <point x="410" y="598" type="line" smooth="yes"/>
      <point x="410" y="803"/>
      <point x="494" y="948"/>
      <point x="608" y="948" type="curve" smooth="yes"/>
      <point x="639" y="948"/>
      <point x="666" y="944"/>
      <point x="690" y="934" type="curve"/>
      <point x="715" y="1106" type="line"/>
      <point x="682" y="1116"/>
      <point x="651" y="1120"/>
      <point x="621" y="1120" type="curve" smooth="yes"/>
      <point x="526" y="1120"/>
      <point x="453" y="1038"/>
      <point x="406" y="911" type="curve"/>
      <point x="395" y="911" type="line"/>
      <point x="375" y="1100" type="line"/>
      <point x="244" y="1100" type="line"/>
      <point x="244" y="643" type="line"/>
      <point x="227" y="651"/>
      <point x="209" y="655"/>
      <point x="193" y="655" type="curve" smooth="yes"/>
      <point x="66" y="655"/>
      <point x="23" y="541"/>
      <point x="10" y="412" type="curve"/>
      <point x="113" y="412" type="line"/>
      <point x="123" y="487"/>
      <point x="154" y="530"/>
      <point x="190" y="530" type="curve" smooth="yes"/>
      <point x="205" y="530"/>
      <point x="223" y="522"/>
      <point x="244" y="508" type="curve"/>
    </contour>
  </outline>
</glyph>
<glyph name="uni1D8D" format="2">
  <advance width="772"/>
  <unicode hex="1D8D"/>
  <outline>
    <contour>
      <point x="727" y="1100" type="line"/>
      <point x="551" y="1100" type="line"/>
      <point x="385" y="702" type="line"/>
      <point x="223" y="1100" type="line"/>
      <point x="45" y="1100" type="line"/>
      <point x="289" y="567" type="line"/>
      <point x="29" y="0" type="line"/>
      <point x="203" y="0" type="line"/>
      <point x="381" y="424" type="line"/>
      <point x="561" y="0" type="line"/>
      <point x="612" y="0" type="line"/>
      <point x="612" y="-145" type="line" smooth="yes"/>
      <point x="612" y="-238"/>
      <point x="584" y="-279"/>
      <point x="520" y="-279" type="curve" smooth="yes"/>
      <point x="498" y="-279"/>
      <point x="469" y="-272"/>
      <point x="442" y="-260" type="curve"/>
      <point x="442" y="-389" type="line"/>
      <point x="473" y="-401"/>
      <point x="512" y="-408"/>
      <point x="563" y="-408" type="curve" smooth="yes"/>
      <point x="696" y="-408"/>
      <point x="762" y="-330"/>
      <point x="762" y="-154" type="curve" smooth="yes"/>
      <point x="762" y="143" type="line"/>
      <point x="674" y="143" type="line"/>
      <point x="481" y="559" type="line"/>
    </contour>
  </outline>
</glyph>
<glyph name="uni1D97" format="2">
  <advance width="711"/>
  <unicode hex="1D97"/>
  <outline>
    <contour>
      <point x="254" y="1120" type="curve" smooth="yes"/>
      <point x="170" y="1120"/>
      <point x="100" y="1102"/>
      <point x="43" y="1069" type="curve"/>
      <point x="94" y="932" type="line"/>
      <point x="147" y="958"/>
      <point x="195" y="973"/>
      <point x="242" y="973" type="curve" smooth="yes"/>
      <point x="381" y="973"/>
      <point x="453" y="827"/>
      <point x="453" y="545" type="curve" smooth="yes"/>
      <point x="453" y="264"/>
      <point x="383" y="125"/>
      <point x="240" y="125" type="curve" smooth="yes"/>
      <point x="180" y="125"/>
      <point x="119" y="143"/>
      <point x="55" y="176" type="curve"/>
      <point x="55" y="-154" type="line" smooth="yes"/>
      <point x="55" y="-330"/>
      <point x="121" y="-408"/>
      <point x="254" y="-408" type="curve" smooth="yes"/>
      <point x="305" y="-408"/>
      <point x="346" y="-401"/>
      <point x="377" y="-389" type="curve"/>
      <point x="377" y="-262" type="line"/>
      <point x="348" y="-274"/>
      <point x="322" y="-279"/>
      <point x="297" y="-279" type="curve" smooth="yes"/>
      <point x="233" y="-279"/>
      <point x="205" y="-238"/>
      <point x="205" y="-147" type="curve" smooth="yes"/>
      <point x="205" y="-12" type="line"/>
      <point x="227" y="-16"/>
      <point x="248" y="-20"/>
      <point x="264" y="-20" type="curve" smooth="yes"/>
      <point x="502" y="-20"/>
      <point x="623" y="170"/>
      <point x="623" y="543" type="curve" smooth="yes"/>
      <point x="623" y="903"/>
      <point x="504" y="1120"/>
    </contour>
  </outline>
</glyph>
<glyph name="dottedgrave" format="2">
  <unicode hex="1DC0"/>
  <anchor x="0" y="1100" name="_top"/>
  <anchor x="4" y="1659" name="top"/>
  <outline>
    <contour>
      <point x="35" y="1626" type="curve"/>
      <point x="-111" y="1626" type="line"/>
      <point x="-111" y="1608" type="line"/>
      <point x="-86" y="1528"/>
      <point x="-37" y="1403"/>
      <point x="10" y="1315" type="curve"/>
      <point x="88" y="1315" type="line"/>
      <point x="88" y="1333" type="line"/>
      <point x="66" y="1425"/>
      <point x="47" y="1532"/>
    </contour>
    <contour>
      <point x="-195" y="1501" type="curve" smooth="yes"/>
      <point x="-242" y="1501"/>
      <point x="-270" y="1466"/>
      <point x="-270" y="1395" type="curve" smooth="yes"/>
      <point x="-270" y="1325"/>
      <point x="-242" y="1290"/>
      <point x="-195" y="1290" type="curve" smooth="yes"/>
      <point x="-150" y="1290"/>
      <point x="-121" y="1325"/>
      <point x="-121" y="1395" type="curve" smooth="yes"/>
      <point x="-121" y="1466"/>
      <point x="-150" y="1501"/>
    </contour>
    <contour>
      <point x="195" y="1659" type="curve" smooth="yes"/>
      <point x="147" y="1659"/>
      <point x="119" y="1622"/>
      <point x="119" y="1552" type="curve" smooth="yes"/>
      <point x="119" y="1483"/>
      <point x="147" y="1448"/>
      <point x="195" y="1448" type="curve" smooth="yes"/>
      <point x="242" y="1448"/>
      <point x="270" y="1483"/>
      <point x="270" y="1552" type="curve" smooth="yes"/>
      <point x="270" y="1622"/>
      <point x="242" y="1659"/>
    </contour>
  </outline>
</glyph>
<glyph name="dottedacute" format="2">
  <unicode hex="1DC1"/>
  <anchor x="-66" y="1100" name="_top"/>
  <anchor x="-61" y="1659" name="top"/>
  <outline>
    <contour>
      <point x="-164" y="1315" type="line"/>
      <point x="-82" y="1315" type="line"/>
      <point x="-39" y="1403"/>
      <point x="12" y="1528"/>
      <point x="37" y="1608" type="curve"/>
      <point x="37" y="1626" type="line"/>
      <point x="-111" y="1626" type="line"/>
      <point x="-121" y="1532"/>
      <point x="-139" y="1425"/>
      <point x="-164" y="1333" type="curve"/>
    </contour>
    <contour>
      <point x="-285" y="1290" type="curve" smooth="yes"/>
      <point x="-238" y="1290"/>
      <point x="-211" y="1325"/>
      <point x="-211" y="1395" type="curve" smooth="yes"/>
      <point x="-211" y="1466"/>
      <point x="-238" y="1501"/>
      <point x="-285" y="1501" type="curve" smooth="yes"/>
      <point x="-334" y="1501"/>
      <point x="-360" y="1466"/>
      <point x="-360" y="1395" type="curve" smooth="yes"/>
      <point x="-360" y="1325"/>
      <point x="-334" y="1290"/>
    </contour>
    <contour>
      <point x="156" y="1448" type="curve" smooth="yes"/>
      <point x="203" y="1448"/>
      <point x="231" y="1483"/>
      <point x="231" y="1552" type="curve" smooth="yes"/>
      <point x="231" y="1622"/>
      <point x="203" y="1659"/>
      <point x="156" y="1659" type="curve" smooth="yes"/>
      <point x="109" y="1659"/>
      <point x="80" y="1622"/>
      <point x="80" y="1552" type="curve" smooth="yes"/>
      <point x="80" y="1483"/>
      <point x="109" y="1448"/>
    </contour>
  </outline>
</glyph>
<glyph name="ogonekabove" format="2">
  <unicode hex="1DCE"/>
  <anchor x="-408" y="1100" name="_top"/>
  <anchor x="-403" y="1559" name="top"/>
  <outline>
    <contour>
      <point x="-397" y="1341" type="curve" smooth="yes"/>
      <point x="-397" y="1262"/>
      <point x="-428" y="1192"/>
      <point x="-520" y="1100" type="curve"/>
      <point x="-410" y="1100" type="line"/>
      <point x="-324" y="1165"/>
      <point x="-260" y="1264"/>
      <point x="-260" y="1366" type="curve" smooth="yes"/>
      <point x="-260" y="1491"/>
      <point x="-322" y="1559"/>
      <point x="-451" y="1559" type="curve" smooth="yes"/>
      <point x="-489" y="1559"/>
      <point x="-526" y="1552"/>
      <point x="-555" y="1542" type="curve"/>
      <point x="-555" y="1425" type="line"/>
      <point x="-541" y="1432"/>
      <point x="-512" y="1438"/>
      <point x="-485" y="1438" type="curve" smooth="yes"/>
      <point x="-430" y="1438"/>
      <point x="-397" y="1405"/>
    </contour>
  </outline>
</glyph>
<glyph name="uni1FBE" format="2">
  <advance width="1229"/>
  <unicode hex="1FBE"/>
  <outline>
    <contour>
      <point x="637" y="-121" type="line"/>
      <point x="496" y="-121" type="line"/>
      <point x="496" y="-293" type="line" smooth="yes"/>
      <point x="496" y="-406"/>
      <point x="557" y="-463"/>
      <point x="653" y="-463" type="curve" smooth="yes"/>
      <point x="698" y="-463"/>
      <point x="745" y="-451"/>
      <point x="772" y="-442" type="curve"/>
      <point x="772" y="-328" type="line"/>
      <point x="754" y="-332"/>
      <point x="725" y="-338"/>
      <point x="702" y="-338" type="curve" smooth="yes"/>
      <point x="664" y="-338"/>
      <point x="637" y="-317"/>
      <point x="637" y="-258" type="curve" smooth="yes"/>
    </contour>
  </outline>
</glyph>
<glyph name="uni1FDF" format="2">
  <advance width="1016"/>
  <unicode hex="1FDF"/>
  <anchor x="516" y="1100" name="_top"/>
  <anchor x="514" y="1751" name="top"/>
  <outline>
    <contour>
      <point x="219" y="1524" type="curve"/>
      <point x="309" y="1524" type="line"/>
      <point x="324" y="1599"/>
      <point x="350" y="1640"/>
      <point x="385" y="1640" type="curve" smooth="yes"/>
      <point x="451" y="1640"/>
      <point x="541" y="1526"/>
      <point x="635" y="1526" type="curve" smooth="yes"/>
      <point x="721" y="1526"/>
      <point x="788" y="1602"/>
      <point x="801" y="1751" type="curve"/>
      <point x="709" y="1751" type="line"/>
      <point x="696" y="1677"/>
      <point x="674" y="1634"/>
      <point x="637" y="1634" type="curve" smooth="yes"/>
      <point x="567" y="1634"/>
      <point x="479" y="1749"/>
      <point x="391" y="1749" type="curve" smooth="yes"/>
      <point x="293" y="1749"/>
      <point x="236" y="1671"/>
    </contour>
    <contour>
      <point x="586" y="1204" type="curve"/>
      <point x="586" y="1260" type="line"/>
      <point x="541" y="1264"/>
      <point x="516" y="1305"/>
      <point x="516" y="1341" type="curve"/>
      <point x="537" y="1356"/>
      <point x="586" y="1366"/>
      <point x="586" y="1421" type="curve" smooth="yes"/>
      <point x="586" y="1468"/>
      <point x="557" y="1501"/>
      <point x="508" y="1501" type="curve" smooth="yes"/>
      <point x="453" y="1501"/>
      <point x="416" y="1462"/>
      <point x="416" y="1382" type="curve" smooth="yes"/>
      <point x="416" y="1282"/>
      <point x="481" y="1208"/>
    </contour>
  </outline>
</glyph>
<glyph name="fourdotmark" format="2">
  <advance width="1364"/>
  <unicode hex="205B"/>
  <outline>
    <contour>
      <point x="672" y="1276" type="curve" smooth="yes"/>
      <point x="745" y="1276"/>
      <point x="791" y="1315"/>
      <point x="791" y="1401" type="curve" smooth="yes"/>
      <point x="791" y="1489"/>
      <point x="745" y="1528"/>
      <point x="672" y="1528" type="curve" smooth="yes"/>
      <point x="600" y="1528"/>
      <point x="553" y="1489"/>
      <point x="553" y="1401" type="curve" smooth="yes"/>
      <point x="553" y="1315"/>
      <point x="600" y="1276"/>
    </contour>
    <contour>
      <point x="672" y="-29" type="curve" smooth="yes"/>
      <point x="745" y="-29"/>
      <point x="791" y="10"/>
      <point x="791" y="98" type="curve" smooth="yes"/>
      <point x="791" y="184"/>
      <point x="745" y="223"/>
      <point x="672" y="223" type="curve" smooth="yes"/>
      <point x="600" y="223"/>
      <point x="553" y="184"/>
      <point x="553" y="98" type="curve" smooth="yes"/>
      <point x="553" y="10"/>
      <point x="600" y="-29"/>
    </contour>
    <contour>
      <point x="223" y="618" type="curve" smooth="yes"/>
      <point x="297" y="618"/>
      <point x="342" y="657"/>
      <point x="342" y="745" type="curve" smooth="yes"/>
      <point x="342" y="831"/>
      <point x="297" y="870"/>
      <point x="223" y="870" type="curve" smooth="yes"/>
      <point x="152" y="870"/>
      <point x="104" y="831"/>
      <point x="104" y="745" type="curve" smooth="yes"/>
      <point x="104" y="657"/>
      <point x="152" y="618"/>
    </contour>
    <contour>
      <point x="1141" y="618" type="curve" smooth="yes"/>
      <point x="1214" y="618"/>
      <point x="1260" y="657"/>
      <point x="1260" y="745" type="curve" smooth="yes"/>
      <point x="1260" y="831"/>
      <point x="1214" y="870"/>
      <point x="1141" y="870" type="curve" smooth="yes"/>
      <point x="1069" y="870"/>
      <point x="1022" y="831"/>
      <point x="1022" y="745" type="curve" smooth="yes"/>
      <point x="1022" y="657"/>
      <point x="1069" y="618"/>
    </contour>
  </outline>
</glyph>
<glyph name="foursuperior" format="2">
  <advance width="643"/>
  <unicode hex="2074"/>
  <outline>
    <contour>
      <point x="608" y="1036" type="line"/>
      <point x="608" y="1151" type="line"/>
      <point x="504" y="1151" type="line"/>
      <point x="504" y="1731" type="line"/>
      <point x="371" y="1731" type="line"/>
      <point x="43" y="1137" type="line"/>
      <point x="43" y="1036" type="line"/>
      <point x="375" y="1036" type="line"/>
      <point x="375" y="850" type="line"/>
      <point x="504" y="850" type="line"/>
      <point x="504" y="1036" type="line"/>
    </contour>
    <contour>
      <point x="375" y="1151" type="line"/>
      <point x="170" y="1151" type="line"/>
      <point x="334" y="1458" type="line" smooth="yes"/>
      <point x="356" y="1501"/>
      <point x="371" y="1534"/>
      <point x="379" y="1561" type="curve"/>
      <point x="375" y="1524"/>
      <point x="375" y="1470"/>
      <point x="375" y="1401" type="curve" smooth="yes"/>
    </contour>
  </outline>
</glyph>
<glyph name="plussuperior" format="2">
  <advance width="694"/>
  <unicode hex="207A"/>
  <outline>
    <contour>
      <point x="293" y="649" type="line"/>
      <point x="401" y="649" type="line"/>
      <point x="401" y="877" type="line"/>
      <point x="623" y="877" type="line"/>
      <point x="623" y="985" type="line"/>
      <point x="401" y="985" type="line"/>
      <point x="401" y="1212" type="line"/>
      <point x="293" y="1212" type="line"/>
      <point x="293" y="985" type="line"/>
      <point x="72" y="985" type="line"/>
      <point x="72" y="877" type="line"/>
      <point x="293" y="877" type="line"/>
    </contour>
  </outline>
</glyph>
<glyph name="uni20A6" format="2">
  <advance width="879"/>
  <unicode hex="20A6"/>
  <outline>
    <contour>
      <point x="123" y="0" type="line"/>
      <point x="260" y="0" type="line"/>
      <point x="258" y="555" type="line"/>
      <point x="422" y="555" type="line"/>
      <point x="563" y="0" type="line"/>
      <point x="756" y="0" type="line"/>
      <point x="756" y="555" type="line"/>
      <point x="870" y="555" type="line"/>
      <point x="870" y="662" type="line"/>
      <point x="756" y="662" type="line"/>
      <point x="756" y="838" type="line"/>
      <point x="870" y="838" type="line"/>
      <point x="870" y="944" type="line"/>
      <point x="756" y="944" type="line"/>
      <point x="756" y="1462" type="line"/>
      <point x="618" y="1462" type="line"/>
      <point x="618" y="944" type="line"/>
      <point x="446" y="944" type="line"/>
      <point x="313" y="1462" type="line"/>
      <point x="123" y="1462" type="line"/>
      <point x="123" y="944" type="line"/>
      <point x="8" y="944" type="line"/>
      <point x="8" y="838" type="line"/>
      <point x="123" y="838" type="line"/>
      <point x="123" y="662" type="line"/>
      <point x="8" y="662" type="line"/>
      <point x="8" y="555" type="line"/>
      <point x="123" y="555" type="line"/>
    </contour>
    <contour>
      <point x="258" y="662" type="line"/>
      <point x="258" y="838" type="line"/>
      <point x="350" y="838" type="line"/>
      <point x="395" y="662" type="line"/>
    </contour>
    <contour>
      <point x="614" y="281" type="line"/>
      <point x="543" y="555" type="line"/>
      <point x="618" y="555" type="line"/>
      <point x="618" y="281" type="line"/>
    </contour>
    <contour>
      <point x="256" y="944" type="line"/>
      <point x="256" y="1182" type="line"/>
      <point x="262" y="1182" type="line"/>
      <point x="324" y="944" type="line"/>
    </contour>
    <contour>
      <point x="516" y="662" type="line"/>
      <point x="471" y="838" type="line"/>
      <point x="618" y="838" type="line"/>
      <point x="618" y="662" type="line"/>
    </contour>
  </outline>
</glyph>
<glyph name="ruble" format="2">
  <advance width="907"/>
  <unicode hex="20BD"/>
  <outline>
    <contour>
      <point x="150" y="0" type="line"/>
      <point x="322" y="0" type="line"/>
      <point x="322" y="575" type="line"/>
      <point x="416" y="575" type="line" smooth="yes"/>
      <point x="702" y="575"/>
      <point x="844" y="733"/>
      <point x="844" y="1032" type="curve" smooth="yes"/>
      <point x="844" y="1325"/>
      <point x="709" y="1462"/>
      <point x="420" y="1462" type="curve" smooth="yes"/>
      <point x="150" y="1462" type="line"/>
    </contour>
    <contour>
      <point x="20" y="264" type="line"/>
      <point x="602" y="264" type="line"/>
      <point x="602" y="397" type="line"/>
      <point x="20" y="397" type="line"/>
    </contour>
    <contour>
      <point x="20" y="575" type="line"/>
      <point x="264" y="575" type="line"/>
      <point x="264" y="709" type="line"/>
      <point x="20" y="709" type="line"/>
    </contour>
    <contour>
      <point x="322" y="709" type="line"/>
      <point x="322" y="1311" type="line"/>
      <point x="414" y="1311" type="line" smooth="yes"/>
      <point x="588" y="1311"/>
      <point x="668" y="1227"/>
      <point x="668" y="1022" type="curve" smooth="yes"/>
      <point x="668" y="801"/>
      <point x="590" y="709"/>
      <point x="399" y="709" type="curve" smooth="yes"/>
    </contour>
  </outline>
</glyph>
<glyph name="cadauna" format="2">
  <advance width="1348"/>
  <unicode hex="2106"/>
  <anchor x="285" y="633" name="_top"/>
  <anchor x="997" y="707" name="top"/>
  <outline>
    <contour>
      <point x="328" y="754" type="curve" smooth="yes"/>
      <point x="391" y="754"/>
      <point x="438" y="766"/>
      <point x="475" y="797" type="curve"/>
      <point x="475" y="909" type="line"/>
      <point x="432" y="881"/>
      <point x="387" y="866"/>
      <point x="336" y="866" type="curve" smooth="yes"/>
      <point x="252" y="866"/>
      <point x="207" y="958"/>
      <point x="207" y="1118" type="curve" smooth="yes"/>
      <point x="207" y="1286"/>
      <point x="256" y="1376"/>
      <point x="340" y="1376" type="curve" smooth="yes"/>
      <point x="377" y="1376"/>
      <point x="412" y="1364"/>
      <point x="455" y="1341" type="curve"/>
      <point x="487" y="1446" type="line"/>
      <point x="442" y="1473"/>
      <point x="395" y="1485"/>
      <point x="338" y="1485" type="curve" smooth="yes"/>
      <point x="184" y="1485"/>
      <point x="82" y="1358"/>
      <point x="82" y="1116" type="curve" smooth="yes"/>
      <point x="82" y="879"/>
      <point x="176" y="754"/>
    </contour>
    <contour>
      <point x="1065" y="1462" type="line"/>
      <point x="922" y="1462" type="line"/>
      <point x="172" y="0" type="line"/>
      <point x="315" y="0" type="line"/>
    </contour>
    <contour>
      <point x="1223" y="707" type="line"/>
      <point x="1098" y="707" type="line"/>
      <point x="1098" y="342" type="line" smooth="yes"/>
      <point x="1098" y="182"/>
      <point x="1067" y="98"/>
      <point x="981" y="98" type="curve" smooth="yes"/>
      <point x="911" y="98"/>
      <point x="889" y="152"/>
      <point x="889" y="268" type="curve" smooth="yes"/>
      <point x="889" y="707" type="line"/>
      <point x="764" y="707" type="line"/>
      <point x="764" y="244" type="line" smooth="yes"/>
      <point x="764" y="72"/>
      <point x="827" y="-12"/>
      <point x="940" y="-12" type="curve" smooth="yes"/>
      <point x="1014" y="-12"/>
      <point x="1065" y="20"/>
      <point x="1100" y="94" type="curve"/>
      <point x="1106" y="94" type="line"/>
      <point x="1122" y="0" type="line"/>
      <point x="1223" y="0" type="line"/>
    </contour>
  </outline>
</glyph>
<glyph name="planckconstantovertwopi" format="2">
  <advance width="850"/>
  <unicode hex="210F"/>
  <outline>
    <contour>
      <point x="37" y="0" type="line"/>
      <point x="201" y="0" type="line"/>
      <point x="328" y="594" type="line" smooth="yes"/>
      <point x="381" y="844"/>
      <point x="457" y="952"/>
      <point x="573" y="952" type="curve" smooth="yes"/>
      <point x="629" y="952"/>
      <point x="657" y="915"/>
      <point x="657" y="852" type="curve" smooth="yes"/>
      <point x="657" y="817"/>
      <point x="651" y="780"/>
      <point x="643" y="745" type="curve" smooth="yes"/>
      <point x="487" y="0" type="line"/>
      <point x="649" y="0" type="line"/>
      <point x="811" y="760" type="line" smooth="yes"/>
      <point x="819" y="807"/>
      <point x="825" y="854"/>
      <point x="825" y="893" type="curve" smooth="yes"/>
      <point x="825" y="1028"/>
      <point x="756" y="1106"/>
      <point x="633" y="1106" type="curve" smooth="yes"/>
      <point x="532" y="1106"/>
      <point x="455" y="1053"/>
      <point x="395" y="946" type="curve"/>
      <point x="389" y="946" type="line"/>
      <point x="406" y="999"/>
      <point x="422" y="1059"/>
      <point x="434" y="1112" type="curve" smooth="yes"/>
      <point x="463" y="1247" type="line"/>
      <point x="653" y="1247" type="line"/>
      <point x="682" y="1376" type="line"/>
      <point x="492" y="1376" type="line"/>
      <point x="530" y="1556" type="line"/>
      <point x="367" y="1556" type="line"/>
      <point x="328" y="1376" type="line"/>
      <point x="203" y="1376" type="line"/>
      <point x="176" y="1247" type="line"/>
      <point x="301" y="1247" type="line"/>
    </contour>
  </outline>
</glyph>
<glyph name="facsimile" format="2">
  <advance width="2152"/>
  <unicode hex="213B"/>
  <outline>
    <contour>
      <point x="2138" y="0" type="line"/>
      <point x="1880" y="762" type="line"/>
      <point x="2126" y="1462" type="line"/>
      <point x="1962" y="1462" type="line"/>
      <point x="1790" y="889" type="line"/>
      <point x="1620" y="1462" type="line"/>
      <point x="1452" y="1462" type="line"/>
      <point x="1681" y="760" type="line"/>
      <point x="1427" y="0" type="line"/>
      <point x="1591" y="0" type="line"/>
      <point x="1780" y="621" type="line"/>
      <point x="1966" y="0" type="line"/>
    </contour>
    <contour>
      <point x="836" y="571" type="line"/>
      <point x="801" y="426" type="line"/>
      <point x="1247" y="426" type="line"/>
      <point x="1214" y="571" type="line"/>
    </contour>
    <contour>
      <point x="289" y="0" type="line"/>
      <point x="289" y="629" type="line"/>
      <point x="616" y="629" type="line"/>
      <point x="616" y="774" type="line"/>
      <point x="289" y="774" type="line"/>
      <point x="289" y="1319" type="line"/>
      <point x="659" y="1319" type="line"/>
      <point x="659" y="1462" type="line"/>
      <point x="137" y="1462" type="line"/>
      <point x="137" y="0" type="line"/>
    </contour>
    <contour>
      <point x="1061" y="1024" type="curve"/>
      <point x="1253" y="0" type="line"/>
      <point x="1419" y="0" type="line"/>
      <point x="1106" y="1468" type="line"/>
      <point x="938" y="1468" type="line"/>
      <point x="623" y="0" type="line"/>
      <point x="784" y="0" type="line"/>
      <point x="977" y="1022" type="line" smooth="yes"/>
      <point x="989" y="1079"/>
      <point x="1006" y="1182"/>
      <point x="1018" y="1257" type="curve"/>
      <point x="1034" y="1176"/>
      <point x="1051" y="1071"/>
    </contour>
  </outline>
</glyph>
<glyph name="Mhook" format="2">
  <advance width="1470"/>
  <unicode hex="2C6E"/>
  <anchor x="735" y="-395" name="bottom"/>
  <anchor x="735" y="1462" name="top"/>
  <outline>
    <contour>
      <point x="1325" y="1462" type="line"/>
      <point x="1079" y="1462" type="line"/>
      <point x="739" y="268" type="line"/>
      <point x="733" y="268" type="line"/>
      <point x="393" y="1462" type="line"/>
      <point x="150" y="1462" type="line"/>
      <point x="150" y="0" type="line"/>
      <point x="313" y="0" type="line"/>
      <point x="313" y="938" type="line" smooth="yes"/>
      <point x="313" y="991"/>
      <point x="309" y="1090"/>
      <point x="301" y="1227" type="curve"/>
      <point x="309" y="1227" type="line"/>
      <point x="657" y="0" type="line"/>
      <point x="811" y="0" type="line"/>
      <point x="1159" y="1227" type="line"/>
      <point x="1167" y="1227" type="line"/>
      <point x="1161" y="1092"/>
      <point x="1157" y="993"/>
      <point x="1157" y="934" type="curve" smooth="yes"/>
      <point x="1157" y="12" type="line" smooth="yes"/>
      <point x="1157" y="-172"/>
      <point x="1118" y="-240"/>
      <point x="1028" y="-240" type="curve" smooth="yes"/>
      <point x="985" y="-240"/>
      <point x="946" y="-231"/>
      <point x="913" y="-219" type="curve"/>
      <point x="913" y="-373" type="line"/>
      <point x="952" y="-389"/>
      <point x="995" y="-395"/>
      <point x="1044" y="-395" type="curve" smooth="yes"/>
      <point x="1229" y="-395"/>
      <point x="1325" y="-289"/>
      <point x="1325" y="-2" type="curve" smooth="yes"/>
    </contour>
  </outline>
</glyph>
<glyph name="rightangledottedsubstitutionmarker" format="2">
  <advance width="1024"/>
  <unicode hex="2E01"/>
  <outline>
    <contour>
      <point x="356" y="565" type="line"/>
      <point x="356" y="1352" type="line"/>
      <point x="778" y="1352" type="line"/>
      <point x="778" y="1462" type="line"/>
      <point x="246" y="1462" type="line"/>
      <point x="246" y="565" type="line"/>
    </contour>
    <contour>
      <point x="510" y="1040" type="curve" smooth="yes"/>
      <point x="510" y="969"/>
      <point x="545" y="936"/>
      <point x="600" y="936" type="curve" smooth="yes"/>
      <point x="655" y="936"/>
      <point x="692" y="969"/>
      <point x="692" y="1040" type="curve" smooth="yes"/>
      <point x="692" y="1112"/>
      <point x="655" y="1145"/>
      <point x="600" y="1145" type="curve" smooth="yes"/>
      <point x="545" y="1145"/>
      <point x="510" y="1112"/>
    </contour>
  </outline>
</glyph>
<glyph name="righttranspositionbracket" format="2">
  <advance width="1024"/>
  <unicode hex="2E0A"/>
  <outline>
    <contour>
      <point x="672" y="575" type="curve" smooth="yes"/>
      <point x="825" y="578"/>
      <point x="909" y="674"/>
      <point x="909" y="723" type="curve" smooth="yes"/>
      <point x="909" y="756"/>
      <point x="889" y="782"/>
      <point x="858" y="782" type="curve" smooth="yes"/>
      <point x="834" y="782"/>
      <point x="813" y="766"/>
      <point x="774" y="731" type="curve" smooth="yes"/>
      <point x="743" y="700"/>
      <point x="707" y="686"/>
      <point x="657" y="686" type="curve" smooth="yes"/>
      <point x="586" y="686"/>
      <point x="532" y="729"/>
      <point x="532" y="838" type="curve" smooth="yes"/>
      <point x="532" y="893"/>
      <point x="555" y="956"/>
      <point x="578" y="1024" type="curve" smooth="yes"/>
      <point x="602" y="1098"/>
      <point x="629" y="1176"/>
      <point x="629" y="1249" type="curve" smooth="yes"/>
      <point x="629" y="1395"/>
      <point x="524" y="1487"/>
      <point x="362" y="1487" type="curve" smooth="yes"/>
      <point x="221" y="1487"/>
      <point x="147" y="1405"/>
      <point x="147" y="1356" type="curve" smooth="yes"/>
      <point x="147" y="1331"/>
      <point x="162" y="1298"/>
      <point x="199" y="1298" type="curve" smooth="yes"/>
      <point x="219" y="1298"/>
      <point x="240" y="1309"/>
      <point x="258" y="1325" type="curve" smooth="yes"/>
      <point x="287" y="1350"/>
      <point x="311" y="1374"/>
      <point x="365" y="1374" type="curve" smooth="yes"/>
      <point x="446" y="1374"/>
      <point x="506" y="1333"/>
      <point x="506" y="1247" type="curve" smooth="yes"/>
      <point x="506" y="1182"/>
      <point x="483" y="1116"/>
      <point x="459" y="1049" type="curve" smooth="yes"/>
      <point x="436" y="983"/>
      <point x="410" y="903"/>
      <point x="410" y="836" type="curve" smooth="yes"/>
      <point x="410" y="705"/>
      <point x="481" y="573"/>
    </contour>
  </outline>
</glyph>
<glyph name="dottedobelos" format="2">
  <advance width="750"/>
  <unicode hex="2E13"/>
  <outline>
    <contour>
      <point x="590" y="1466" type="line"/>
      <point x="18" y="-8" type="line"/>
      <point x="154" y="-8" type="line"/>
      <point x="731" y="1466" type="line"/>
    </contour>
    <contour>
      <point x="18" y="989" type="curve" smooth="yes"/>
      <point x="18" y="913"/>
      <point x="49" y="874"/>
      <point x="121" y="874" type="curve" smooth="yes"/>
      <point x="190" y="874"/>
      <point x="221" y="913"/>
      <point x="221" y="989" type="curve" smooth="yes"/>
      <point x="221" y="1065"/>
      <point x="188" y="1102"/>
      <point x="121" y="1102" type="curve" smooth="yes"/>
      <point x="51" y="1102"/>
      <point x="18" y="1065"/>
    </contour>
    <contour>
      <point x="520" y="469" type="curve" smooth="yes"/>
      <point x="520" y="393"/>
      <point x="551" y="356"/>
      <point x="623" y="356" type="curve" smooth="yes"/>
      <point x="692" y="356"/>
      <point x="723" y="393"/>
      <point x="723" y="469" type="curve" smooth="yes"/>
      <point x="723" y="545"/>
      <point x="690" y="582"/>
      <point x="623" y="582" type="curve" smooth="yes"/>
      <point x="553" y="582"/>
      <point x="520" y="545"/>
    </contour>
  </outline>
</glyph>
<glyph name="uniA64F" format="2">
  <advance width="938"/>
  <unicode hex="A64F"/>
  <outline>
    <contour>
      <point x="229" y="795" type="curve" smooth="yes"/>
      <point x="229" y="0" type="line"/>
      <point x="514" y="0" type="line" smooth="yes"/>
      <point x="739" y="0"/>
      <point x="868" y="113"/>
      <point x="868" y="326" type="curve" smooth="yes"/>
      <point x="868" y="537"/>
      <point x="743" y="645"/>
      <point x="506" y="645" type="curve" smooth="yes"/>
      <point x="393" y="645" type="line"/>
      <point x="393" y="829" type="line" smooth="yes"/>
      <point x="393" y="1022"/>
      <point x="299" y="1120"/>
      <point x="133" y="1120" type="curve" smooth="yes"/>
      <point x="68" y="1120"/>
      <point x="23" y="1106"/>
      <point x="0" y="1094" type="curve"/>
      <point x="25" y="956" type="line"/>
      <point x="47" y="965"/>
      <point x="76" y="971"/>
      <point x="100" y="971" type="curve" smooth="yes"/>
      <point x="188" y="971"/>
      <point x="229" y="918"/>
    </contour>
    <contour>
      <point x="700" y="319" type="curve" smooth="yes"/>
      <point x="700" y="197"/>
      <point x="637" y="133"/>
      <point x="508" y="133" type="curve" smooth="yes"/>
      <point x="393" y="133" type="line"/>
      <point x="393" y="512" type="line"/>
      <point x="508" y="512" type="line" smooth="yes"/>
      <point x="639" y="512"/>
      <point x="700" y="446"/>
    </contour>
  </outline>
</glyph>
<glyph name="uniA65D" format="2">
  <advance width="1249"/>
  <unicode hex="A65D"/>
  <outline>
    <contour>
      <point x="299" y="1100" type="line"/>
      <point x="133" y="1100" type="line"/>
      <point x="133" y="0" type="line"/>
      <point x="299" y="0" type="line"/>
      <point x="299" y="494" type="line"/>
      <point x="684" y="494" type="line"/>
      <point x="684" y="625" type="line"/>
      <point x="299" y="625" type="line"/>
    </contour>
    <contour>
      <point x="580" y="137" type="line"/>
      <point x="580" y="0" type="line"/>
      <point x="1133" y="0" type="line"/>
      <point x="1133" y="137" type="line"/>
    </contour>
    <contour>
      <point x="952" y="1100" type="line"/>
      <point x="739" y="1100" type="line"/>
      <point x="440" y="0" type="line"/>
      <point x="623" y="0" type="line"/>
      <point x="727" y="432" type="line"/>
      <point x="963" y="432" type="line"/>
      <point x="1067" y="0" type="line"/>
      <point x="1249" y="0" type="line"/>
    </contour>
    <contour>
      <point x="850" y="940" type="line"/>
      <point x="856" y="895"/>
      <point x="868" y="840"/>
      <point x="879" y="793" type="curve" smooth="yes"/>
      <point x="934" y="563" type="line"/>
      <point x="754" y="563" type="line"/>
      <point x="811" y="791" type="line" smooth="yes"/>
      <point x="819" y="831"/>
      <point x="834" y="893"/>
      <point x="842" y="940" type="curve"/>
    </contour>
  </outline>
</glyph>
<glyph name="uniA67C" format="2">
  <unicode hex="A67C"/>
  <anchor x="0" y="1100" name="_top"/>
  <outline>
    <contour>
      <point x="311" y="1585" type="curve"/>
      <point x="174" y="1585" type="line"/>
      <point x="170" y="1509"/>
      <point x="133" y="1450"/>
      <point x="-2" y="1450" type="curve" smooth="yes"/>
      <point x="-131" y="1450"/>
      <point x="-170" y="1503"/>
      <point x="-174" y="1585" type="curve"/>
      <point x="-311" y="1585" type="line"/>
      <point x="-303" y="1440"/>
      <point x="-213" y="1354"/>
      <point x="-2" y="1354" type="curve" smooth="yes"/>
      <point x="205" y="1354"/>
      <point x="303" y="1448"/>
    </contour>
  </outline>
</glyph>
<glyph name="uniA68F" format="2">
  <advance width="975"/>
  <unicode hex="A68F"/>
  <outline>
    <contour>
      <point x="297" y="-436" type="curve" smooth="yes"/>
      <point x="582" y="-436" type="line" smooth="yes"/>
      <point x="860" y="-434"/>
      <point x="946" y="-307"/>
      <point x="946" y="-133" type="curve" smooth="yes"/>
      <point x="946" y="-25"/>
      <point x="903" y="55"/>
      <point x="817" y="98" type="curve"/>
      <point x="817" y="1100" type="line"/>
      <point x="651" y="1100" type="line"/>
      <point x="651" y="145" type="line"/>
      <point x="297" y="145" type="line"/>
      <point x="297" y="1100" type="line"/>
      <point x="133" y="1100" type="line"/>
      <point x="133" y="0" type="line"/>
      <point x="582" y="0" type="line" smooth="yes"/>
      <point x="745" y="0"/>
      <point x="793" y="-63"/>
      <point x="793" y="-158" type="curve" smooth="yes"/>
      <point x="793" y="-260"/>
      <point x="721" y="-324"/>
      <point x="565" y="-324" type="curve" smooth="yes"/>
      <point x="311" y="-324" type="line" smooth="yes"/>
      <point x="252" y="-324"/>
      <point x="231" y="-301"/>
      <point x="231" y="-272" type="curve" smooth="yes"/>
      <point x="231" y="-236"/>
      <point x="256" y="-209"/>
      <point x="309" y="-209" type="curve" smooth="yes"/>
      <point x="600" y="-209" type="line"/>
      <point x="600" y="-109" type="line"/>
      <point x="295" y="-109" type="line" smooth="yes"/>
      <point x="164" y="-109"/>
      <point x="104" y="-174"/>
      <point x="104" y="-272" type="curve" smooth="yes"/>
      <point x="104" y="-373"/>
      <point x="170" y="-436"/>
    </contour>
  </outline>
</glyph>
<glyph name="uniA696" format="2">
  <advance width="1563"/>
  <unicode hex="A696"/>
  <outline>
    <contour>
      <point x="322" y="-436" type="curve" smooth="yes"/>
      <point x="1174" y="-436" type="line" smooth="yes"/>
      <point x="1452" y="-436"/>
      <point x="1546" y="-301"/>
      <point x="1546" y="-123" type="curve" smooth="yes"/>
      <point x="1546" y="-8"/>
      <point x="1493" y="80"/>
      <point x="1382" y="119" type="curve"/>
      <point x="1382" y="1462" type="line"/>
      <point x="1208" y="1462" type="line"/>
      <point x="1208" y="156" type="line"/>
      <point x="850" y="156" type="line"/>
      <point x="850" y="1462" type="line"/>
      <point x="678" y="1462" type="line"/>
      <point x="678" y="156" type="line"/>
      <point x="322" y="156" type="line"/>
      <point x="322" y="1462" type="line"/>
      <point x="147" y="1462" type="line"/>
      <point x="147" y="0" type="line"/>
      <point x="1174" y="0" type="line"/>
      <point x="1329" y="0"/>
      <point x="1386" y="-63"/>
      <point x="1386" y="-154" type="curve" smooth="yes"/>
      <point x="1386" y="-266"/>
      <point x="1305" y="-319"/>
      <point x="1157" y="-319" type="curve" smooth="yes"/>
      <point x="334" y="-319" type="line" smooth="yes"/>
      <point x="272" y="-319"/>
      <point x="254" y="-303"/>
      <point x="254" y="-270" type="curve" smooth="yes"/>
      <point x="254" y="-233"/>
      <point x="276" y="-211"/>
      <point x="330" y="-211" type="curve" smooth="yes"/>
      <point x="1149" y="-211" type="line"/>
      <point x="1149" y="-109" type="line"/>
      <point x="313" y="-109" type="line" smooth="yes"/>
      <point x="182" y="-109"/>
      <point x="123" y="-174"/>
      <point x="123" y="-272" type="curve" smooth="yes"/>
      <point x="123" y="-379"/>
      <point x="193" y="-436"/>
    </contour>
  </outline>
</glyph>
<glyph name="uniA697" format="2">
  <advance width="1341"/>
  <unicode hex="A697"/>
  <outline>
    <contour>
      <point x="297" y="-436" type="curve" smooth="yes"/>
      <point x="948" y="-436" type="line" smooth="yes"/>
      <point x="1227" y="-436"/>
      <point x="1313" y="-307"/>
      <point x="1313" y="-133" type="curve" smooth="yes"/>
      <point x="1313" y="-25"/>
      <point x="1268" y="55"/>
      <point x="1182" y="98" type="curve"/>
      <point x="1182" y="1100" type="line"/>
      <point x="1016" y="1100" type="line"/>
      <point x="1016" y="145" type="line"/>
      <point x="739" y="145" type="line"/>
      <point x="739" y="1100" type="line"/>
      <point x="573" y="1100" type="line"/>
      <point x="573" y="145" type="line"/>
      <point x="297" y="145" type="line"/>
      <point x="297" y="1100" type="line"/>
      <point x="133" y="1100" type="line"/>
      <point x="133" y="0" type="line"/>
      <point x="948" y="0" type="line" smooth="yes"/>
      <point x="1112" y="0"/>
      <point x="1159" y="-63"/>
      <point x="1159" y="-158" type="curve" smooth="yes"/>
      <point x="1159" y="-260"/>
      <point x="1087" y="-324"/>
      <point x="932" y="-324" type="curve" smooth="yes"/>
      <point x="311" y="-324" type="line" smooth="yes"/>
      <point x="252" y="-324"/>
      <point x="231" y="-301"/>
      <point x="231" y="-272" type="curve" smooth="yes"/>
      <point x="231" y="-236"/>
      <point x="256" y="-209"/>
      <point x="309" y="-209" type="curve" smooth="yes"/>
      <point x="967" y="-209" type="line"/>
      <point x="967" y="-109" type="line"/>
      <point x="295" y="-109" type="line" smooth="yes"/>
      <point x="164" y="-109"/>
      <point x="104" y="-174"/>
      <point x="104" y="-272" type="curve" smooth="yes"/>
      <point x="104" y="-373"/>
      <point x="170" y="-436"/>
    </contour>
  </outline>
</glyph>
<glyph name="uniA717" format="2">
  <advance width="586"/>
  <unicode hex="A717"/>
  <outline>
    <contour>
      <point x="504" y="1890" type="line"/>
      <point x="406" y="1890" type="line"/>
      <point x="406" y="1343" type="line"/>
      <point x="504" y="1343" type="line"/>
    </contour>
    <contour>
      <point x="260" y="1620" type="curve" smooth="yes"/>
      <point x="260" y="1671"/>
      <point x="227" y="1696"/>
      <point x="172" y="1696" type="curve" smooth="yes"/>
      <point x="115" y="1696"/>
      <point x="82" y="1671"/>
      <point x="82" y="1620" type="curve" smooth="yes"/>
      <point x="82" y="1569"/>
      <point x="113" y="1542"/>
      <point x="172" y="1542" type="curve" smooth="yes"/>
      <point x="227" y="1542"/>
      <point x="260" y="1569"/>
    </contour>
  </outline>
</glyph>
<glyph name="uniA724" format="2">
  <advance width="901"/>
  <unicode hex="A724"/>
  <outline>
    <contour>
      <point x="680" y="545" type="curve" smooth="yes"/>
      <point x="715" y="545" type="line"/>
      <point x="715" y="649" type="line"/>
      <point x="696" y="649" type="line" smooth="yes"/>
      <point x="442" y="649"/>
      <point x="266" y="770"/>
      <point x="266" y="993" type="curve" smooth="yes"/>
      <point x="266" y="1194"/>
      <point x="385" y="1296"/>
      <point x="618" y="1296" type="curve" smooth="yes"/>
      <point x="795" y="1296" type="line"/>
      <point x="795" y="1462" type="line"/>
      <point x="604" y="1462" type="line" smooth="yes"/>
      <point x="262" y="1462"/>
      <point x="102" y="1286"/>
      <point x="102" y="1012" type="curve" smooth="yes"/>
      <point x="102" y="729"/>
      <point x="287" y="545"/>
    </contour>
  </outline>
</glyph>
<glyph name="uniA74D" format="2">
  <advance width="1188"/>
  <unicode hex="A74D"/>
  <outline>
    <contour>
      <point x="453" y="-20" type="curve" smooth="yes"/>
      <point x="700" y="-20"/>
      <point x="825" y="201"/>
      <point x="825" y="537" type="curve" smooth="yes"/>
      <point x="825" y="563"/>
      <point x="825" y="586"/>
      <point x="823" y="608" type="curve"/>
      <point x="862" y="586"/>
      <point x="907" y="573"/>
      <point x="958" y="573" type="curve" smooth="yes"/>
      <point x="1110" y="573"/>
      <point x="1235" y="686"/>
      <point x="1235" y="850" type="curve" smooth="yes"/>
      <point x="1235" y="1008"/>
      <point x="1112" y="1124"/>
      <point x="958" y="1124" type="curve" smooth="yes"/>
      <point x="856" y="1124"/>
      <point x="766" y="1071"/>
      <point x="719" y="985" type="curve"/>
      <point x="657" y="1075"/>
      <point x="569" y="1120"/>
      <point x="457" y="1120" type="curve" smooth="yes"/>
      <point x="203" y="1120"/>
      <point x="86" y="913"/>
      <point x="86" y="551" type="curve" smooth="yes"/>
      <point x="86" y="201"/>
      <point x="209" y="-20"/>
    </contour>
    <contour>
      <point x="457" y="125" type="curve" smooth="yes"/>
      <point x="317" y="125"/>
      <point x="256" y="270"/>
      <point x="256" y="551" type="curve" smooth="yes"/>
      <point x="256" y="834"/>
      <point x="315" y="975"/>
      <point x="457" y="975" type="curve" smooth="yes"/>
      <point x="594" y="975"/>
      <point x="657" y="834"/>
      <point x="657" y="551" type="curve" smooth="yes"/>
      <point x="657" y="266"/>
      <point x="594" y="125"/>
    </contour>
    <contour>
      <point x="961" y="682" type="curve" smooth="yes"/>
      <point x="872" y="682"/>
      <point x="797" y="752"/>
      <point x="797" y="850" type="curve" smooth="yes"/>
      <point x="797" y="936"/>
      <point x="862" y="1016"/>
      <point x="961" y="1016" type="curve" smooth="yes"/>
      <point x="1053" y="1016"/>
      <point x="1122" y="942"/>
      <point x="1122" y="850" type="curve" smooth="yes"/>
      <point x="1122" y="754"/>
      <point x="1051" y="682"/>
    </contour>
  </outline>
</glyph>
<glyph name="uniA761" format="2">
  <advance width="1239"/>
  <unicode hex="A761"/>
  <outline>
    <contour>
      <point x="938" y="-162" type="curve" smooth="yes"/>
      <point x="1221" y="1100" type="line"/>
      <point x="1059" y="1100" type="line"/>
      <point x="924" y="434" type="line" smooth="yes"/>
      <point x="905" y="336"/>
      <point x="893" y="254"/>
      <point x="889" y="201" type="curve"/>
      <point x="883" y="201" type="line"/>
      <point x="862" y="348"/>
      <point x="844" y="465"/>
      <point x="827" y="541" type="curve" smooth="yes"/>
      <point x="713" y="1100" type="line"/>
      <point x="528" y="1100" type="line"/>
      <point x="414" y="543" type="line" smooth="yes"/>
      <point x="387" y="414"/>
      <point x="371" y="299"/>
      <point x="358" y="201" type="curve"/>
      <point x="352" y="201" type="line"/>
      <point x="336" y="317"/>
      <point x="315" y="438"/>
      <point x="295" y="551" type="curve" smooth="yes"/>
      <point x="184" y="1100" type="line"/>
      <point x="18" y="1100" type="line"/>
      <point x="254" y="0" type="line"/>
      <point x="444" y="0" type="line"/>
      <point x="580" y="666" type="line" smooth="yes"/>
      <point x="594" y="739"/>
      <point x="606" y="827"/>
      <point x="618" y="907" type="curve"/>
      <point x="623" y="907" type="line"/>
      <point x="633" y="831"/>
      <point x="641" y="743"/>
      <point x="659" y="666" type="curve" smooth="yes"/>
      <point x="809" y="-35" type="line"/>
      <point x="782" y="-150" type="line" smooth="yes"/>
      <point x="745" y="-317"/>
      <point x="700" y="-342"/>
      <point x="623" y="-342" type="curve" smooth="yes"/>
      <point x="592" y="-342"/>
      <point x="563" y="-338"/>
      <point x="537" y="-330" type="curve"/>
      <point x="537" y="-475" type="line"/>
      <point x="573" y="-485"/>
      <point x="598" y="-492"/>
      <point x="637" y="-492" type="curve" smooth="yes"/>
      <point x="780" y="-492"/>
      <point x="879" y="-426"/>
    </contour>
  </outline>
</glyph>
<glyph name="uniA78F" format="2">
  <advance width="494"/>
  <unicode hex="A78F"/>
  <outline>
    <contour>
      <point x="96" y="717" type="curve" smooth="yes"/>
      <point x="96" y="594"/>
      <point x="160" y="535"/>
      <point x="246" y="535" type="curve" smooth="yes"/>
      <point x="336" y="535"/>
      <point x="397" y="594"/>
      <point x="397" y="717" type="curve" smooth="yes"/>
      <point x="397" y="844"/>
      <point x="336" y="899"/>
      <point x="246" y="899" type="curve" smooth="yes"/>
      <point x="160" y="899"/>
      <point x="96" y="844"/>
    </contour>
  </outline>
</glyph>
<glyph name="uniA79A" format="2">
  <advance width="1141"/>
  <unicode hex="A79A"/>
  <outline>
    <contour>
      <point x="477" y="-20" type="curve" smooth="yes"/>
      <point x="664" y="-20"/>
      <point x="760" y="82"/>
      <point x="815" y="203" type="curve"/>
      <point x="827" y="203" type="line"/>
      <point x="862" y="0" type="line"/>
      <point x="997" y="0" type="line"/>
      <point x="997" y="1462" type="line"/>
      <point x="848" y="1462" type="line"/>
      <point x="829" y="1262" type="line"/>
      <point x="823" y="1262" type="line"/>
      <point x="770" y="1368"/>
      <point x="668" y="1483"/>
      <point x="481" y="1483" type="curve" smooth="yes"/>
      <point x="262" y="1483"/>
      <point x="121" y="1346"/>
      <point x="121" y="1112" type="curve" smooth="yes"/>
      <point x="121" y="922"/>
      <point x="193" y="809"/>
      <point x="348" y="768" type="curve"/>
      <point x="348" y="762" type="line"/>
      <point x="170" y="719"/>
      <point x="78" y="592"/>
      <point x="78" y="401" type="curve" smooth="yes"/>
      <point x="78" y="127"/>
      <point x="238" y="-20"/>
    </contour>
    <contour>
      <point x="516" y="131" type="curve" smooth="yes"/>
      <point x="358" y="131"/>
      <point x="252" y="219"/>
      <point x="252" y="416" type="curve" smooth="yes"/>
      <point x="252" y="594"/>
      <point x="350" y="684"/>
      <point x="541" y="684" type="curve" smooth="yes"/>
      <point x="602" y="684" type="line"/>
      <point x="602" y="836" type="line"/>
      <point x="543" y="836" type="line" smooth="yes"/>
      <point x="360" y="836"/>
      <point x="291" y="928"/>
      <point x="291" y="1098" type="curve" smooth="yes"/>
      <point x="291" y="1249"/>
      <point x="371" y="1331"/>
      <point x="514" y="1331" type="curve" smooth="yes"/>
      <point x="721" y="1331"/>
      <point x="834" y="1186"/>
      <point x="834" y="868" type="curve" smooth="yes"/>
      <point x="834" y="614" type="line" smooth="yes"/>
      <point x="834" y="285"/>
      <point x="719" y="131"/>
    </contour>
  </outline>
</glyph>
<glyph name="uniA79F" format="2">
  <advance width="932"/>
  <unicode hex="A79F"/>
  <outline>
    <contour>
      <point x="393" y="-20" type="curve" smooth="yes"/>
      <point x="518" y="-20"/>
      <point x="598" y="49"/>
      <point x="641" y="158" type="curve"/>
      <point x="649" y="158" type="line"/>
      <point x="682" y="0" type="line"/>
      <point x="807" y="0" type="line"/>
      <point x="807" y="1098" type="line"/>
      <point x="649" y="1098" type="line"/>
      <point x="649" y="526" type="line" smooth="yes"/>
      <point x="649" y="262"/>
      <point x="592" y="119"/>
      <point x="428" y="119" type="curve" smooth="yes"/>
      <point x="322" y="119"/>
      <point x="264" y="195"/>
      <point x="264" y="313" type="curve" smooth="yes"/>
      <point x="264" y="440"/>
      <point x="307" y="514"/>
      <point x="432" y="514" type="curve" smooth="yes"/>
      <point x="473" y="514" type="line"/>
      <point x="473" y="643" type="line"/>
      <point x="449" y="643" type="line" smooth="yes"/>
      <point x="309" y="643"/>
      <point x="256" y="707"/>
      <point x="256" y="881" type="curve" smooth="yes"/>
      <point x="256" y="1098" type="line"/>
      <point x="96" y="1098" type="line"/>
      <point x="96" y="885" type="line" smooth="yes"/>
      <point x="96" y="700"/>
      <point x="168" y="618"/>
      <point x="266" y="584" type="curve"/>
      <point x="266" y="575" type="line"/>
      <point x="147" y="539"/>
      <point x="96" y="440"/>
      <point x="96" y="295" type="curve" smooth="yes"/>
      <point x="96" y="86"/>
      <point x="221" y="-20"/>
    </contour>
  </outline>
</glyph>
<glyph name="uniA7A0" format="2">
  <advance width="1116"/>
  <unicode hex="A7A0"/>
  <outline>
    <contour>
      <point x="283" y="760" type="curve"/>
      <point x="1073" y="999" type="line"/>
      <point x="1073" y="1126" type="line"/>
      <point x="295" y="891" type="line"/>
      <point x="326" y="1176"/>
      <point x="451" y="1329"/>
      <point x="659" y="1329" type="curve" smooth="yes"/>
      <point x="750" y="1329"/>
      <point x="838" y="1300"/>
      <point x="926" y="1243" type="curve"/>
      <point x="987" y="1389" type="line"/>
      <point x="891" y="1450"/>
      <point x="778" y="1483"/>
      <point x="655" y="1483" type="curve" smooth="yes"/>
      <point x="313" y="1483"/>
      <point x="135" y="1221"/>
      <point x="106" y="842" type="curve"/>
      <point x="0" y="809" type="line"/>
      <point x="0" y="682" type="line"/>
      <point x="102" y="713" type="line"/>
      <point x="106" y="293"/>
      <point x="270" y="-20"/>
      <point x="623" y="-20" type="curve" smooth="yes"/>
      <point x="756" y="-20"/>
      <point x="883" y="4"/>
      <point x="1006" y="51" type="curve"/>
      <point x="1006" y="741" type="line"/>
      <point x="631" y="741" type="line"/>
      <point x="631" y="590" type="line"/>
      <point x="836" y="590" type="line"/>
      <point x="836" y="166" type="line"/>
      <point x="780" y="145"/>
      <point x="713" y="135"/>
      <point x="635" y="135" type="curve" smooth="yes"/>
      <point x="385" y="135"/>
      <point x="283" y="393"/>
      <point x="283" y="725" type="curve" smooth="yes"/>
      <point x="283" y="735"/>
      <point x="283" y="748"/>
    </contour>
  </outline>
</glyph>
<glyph name="uniA7B4" format="2">
  <advance width="977"/>
  <unicode hex="A7B4"/>
  <outline>
    <contour>
      <point x="150" y="1462" type="line"/>
      <point x="150" y="-492" type="line"/>
      <point x="322" y="-492" type="line"/>
      <point x="322" y="0" type="line"/>
      <point x="524" y="0" type="line" smooth="yes"/>
      <point x="764" y="0"/>
      <point x="897" y="166"/>
      <point x="897" y="420" type="curve" smooth="yes"/>
      <point x="897" y="616"/>
      <point x="821" y="727"/>
      <point x="657" y="766" type="curve"/>
      <point x="657" y="774" type="line"/>
      <point x="795" y="805"/>
      <point x="868" y="922"/>
      <point x="868" y="1110" type="curve" smooth="yes"/>
      <point x="868" y="1346"/>
      <point x="731" y="1462"/>
      <point x="473" y="1462" type="curve" smooth="yes"/>
    </contour>
    <contour>
      <point x="322" y="836" type="line"/>
      <point x="322" y="1315" type="line"/>
      <point x="471" y="1315" type="line" smooth="yes"/>
      <point x="616" y="1315"/>
      <point x="692" y="1237"/>
      <point x="692" y="1094" type="curve" smooth="yes"/>
      <point x="692" y="922"/>
      <point x="627" y="836"/>
      <point x="473" y="836" type="curve" smooth="yes"/>
    </contour>
    <contour>
      <point x="322" y="690" type="line"/>
      <point x="485" y="690" type="line"/>
      <point x="633" y="690"/>
      <point x="719" y="598"/>
      <point x="719" y="428" type="curve" smooth="yes"/>
      <point x="719" y="242"/>
      <point x="647" y="150"/>
      <point x="506" y="150" type="curve" smooth="yes"/>
      <point x="322" y="150" type="line"/>
    </contour>
  </outline>
</glyph>
<glyph name="uniAB33" format="2">
  <advance width="856"/>
  <unicode hex="AB33"/>
  <outline>
    <contour>
      <point x="442" y="1118" type="curve" smooth="yes"/>
      <point x="211" y="1118"/>
      <point x="88" y="915"/>
      <point x="88" y="543" type="curve" smooth="yes"/>
      <point x="88" y="193"/>
      <point x="201" y="-20"/>
      <point x="483" y="-20" type="curve" smooth="yes"/>
      <point x="584" y="-20"/>
      <point x="666" y="6"/>
      <point x="733" y="43" type="curve"/>
      <point x="733" y="178" type="line"/>
      <point x="662" y="139"/>
      <point x="590" y="119"/>
      <point x="506" y="119" type="curve" smooth="yes"/>
      <point x="334" y="119"/>
      <point x="250" y="221"/>
      <point x="250" y="551" type="curve" smooth="yes"/>
      <point x="250" y="588"/>
      <point x="250" y="621"/>
      <point x="252" y="653" type="curve"/>
      <point x="774" y="653" type="line"/>
      <point x="776" y="932"/>
      <point x="674" y="1118"/>
    </contour>
    <contour>
      <point x="442" y="991" type="curve" smooth="yes"/>
      <point x="549" y="991"/>
      <point x="604" y="911"/>
      <point x="614" y="754" type="curve"/>
      <point x="262" y="754" type="line"/>
      <point x="287" y="920"/>
      <point x="348" y="991"/>
    </contour>
    <contour>
      <point x="6" y="485" type="line"/>
      <point x="6" y="377" type="line"/>
      <point x="850" y="377" type="line"/>
      <point x="850" y="485" type="line"/>
    </contour>
  </outline>
</glyph>
<glyph name="uniAB35" format="2">
  <advance width="518"/>
  <unicode hex="AB35"/>
  <anchor x="233" y="123" name="bottom"/>
  <anchor x="385" y="1567" name="top"/>
  <anchor x="547" y="1567" name="topright"/>
  <outline>
    <contour>
      <point x="492" y="961" type="line"/>
      <point x="492" y="1100" type="line"/>
      <point x="317" y="1100" type="line"/>
      <point x="317" y="1176" type="line"/>
      <point x="319" y="1362"/>
      <point x="342" y="1421"/>
      <point x="422" y="1421" type="curve"/>
      <point x="453" y="1421"/>
      <point x="485" y="1413"/>
      <point x="522" y="1401" type="curve"/>
      <point x="565" y="1534" type="line"/>
      <point x="508" y="1556"/>
      <point x="461" y="1567"/>
      <point x="401" y="1567" type="curve" smooth="yes"/>
      <point x="207" y="1567"/>
      <point x="152" y="1423"/>
      <point x="152" y="1169" type="curve" smooth="yes"/>
      <point x="152" y="1100" type="line"/>
      <point x="18" y="1100" type="line"/>
      <point x="18" y="961" type="line"/>
      <point x="152" y="961" type="line"/>
      <point x="152" y="123" type="line"/>
      <point x="317" y="123" type="line"/>
      <point x="317" y="961" type="line"/>
    </contour>
  </outline>
</glyph>
<glyph name="uniAB3F" format="2">
  <advance width="903"/>
  <unicode hex="AB3F"/>
  <outline>
    <contour>
      <point x="244" y="438" type="curve"/>
      <point x="86" y="387" type="line"/>
      <point x="100" y="281"/>
      <point x="131" y="193"/>
      <point x="180" y="123" type="curve"/>
      <point x="76" y="-86" type="line"/>
      <point x="176" y="-135" type="line"/>
      <point x="260" y="39" type="line"/>
      <point x="309" y="0"/>
      <point x="371" y="-20"/>
      <point x="442" y="-20" type="curve" smooth="yes"/>
      <point x="682" y="-20"/>
      <point x="815" y="186"/>
      <point x="815" y="551" type="curve" smooth="yes"/>
      <point x="815" y="723"/>
      <point x="784" y="862"/>
      <point x="721" y="963" type="curve"/>
      <point x="813" y="1151" type="line"/>
      <point x="713" y="1200" type="line"/>
      <point x="637" y="1049" type="line"/>
      <point x="584" y="1098"/>
      <point x="522" y="1120"/>
      <point x="446" y="1120" type="curve" smooth="yes"/>
      <point x="375" y="1120"/>
      <point x="309" y="1108"/>
      <point x="258" y="1079" type="curve"/>
      <point x="258" y="932" type="line"/>
      <point x="317" y="969"/>
      <point x="393" y="979"/>
      <point x="438" y="979" type="curve" smooth="yes"/>
      <point x="494" y="979"/>
      <point x="543" y="956"/>
      <point x="575" y="913" type="curve"/>
      <point x="268" y="295" type="line"/>
      <point x="258" y="334"/>
      <point x="248" y="381"/>
    </contour>
    <contour>
      <point x="653" y="551" type="curve" smooth="yes"/>
      <point x="653" y="264"/>
      <point x="588" y="119"/>
      <point x="444" y="119" type="curve" smooth="yes"/>
      <point x="397" y="119"/>
      <point x="356" y="137"/>
      <point x="326" y="174" type="curve"/>
      <point x="629" y="786" type="line"/>
      <point x="643" y="727"/>
      <point x="653" y="649"/>
    </contour>
  </outline>
</glyph>
<glyph name="uniAB4B" format="2">
  <advance width="627"/>
  <unicode hex="AB4B"/>
  <outline>
    <contour>
      <point x="-35" y="1120" type="curve"/>
      <point x="-35" y="985" type="line"/>
      <point x="43" y="950"/>
      <point x="125" y="934"/>
      <point x="201" y="934" type="curve" smooth="yes"/>
      <point x="252" y="934"/>
      <point x="287" y="940"/>
      <point x="328" y="954" type="curve"/>
      <point x="328" y="0" type="line"/>
      <point x="492" y="0" type="line"/>
      <point x="492" y="1120" type="line"/>
      <point x="391" y="1083"/>
      <point x="295" y="1067"/>
      <point x="219" y="1067" type="curve" smooth="yes"/>
      <point x="141" y="1067"/>
      <point x="55" y="1085"/>
    </contour>
  </outline>
</glyph>
<glyph name="uniAB4D" format="2">
  <advance width="532"/>
  <unicode hex="AB4D"/>
  <outline>
    <contour>
      <point x="385" y="258" type="curve"/>
      <point x="385" y="1272" type="line" smooth="yes"/>
      <point x="385" y="1384"/>
      <point x="414" y="1417"/>
      <point x="492" y="1417" type="curve" smooth="yes"/>
      <point x="516" y="1417"/>
      <point x="545" y="1411"/>
      <point x="573" y="1401" type="curve"/>
      <point x="573" y="1548" type="line"/>
      <point x="551" y="1559"/>
      <point x="502" y="1567"/>
      <point x="467" y="1567" type="curve" smooth="yes"/>
      <point x="315" y="1567"/>
      <point x="221" y="1497"/>
      <point x="221" y="1288" type="curve" smooth="yes"/>
      <point x="221" y="274" type="line"/>
      <point x="221" y="162"/>
      <point x="193" y="129"/>
      <point x="117" y="129" type="curve" smooth="yes"/>
      <point x="90" y="129"/>
      <point x="61" y="135"/>
      <point x="33" y="145" type="curve"/>
      <point x="33" y="-2" type="line"/>
      <point x="57" y="-12"/>
      <point x="104" y="-20"/>
      <point x="141" y="-20" type="curve" smooth="yes"/>
      <point x="291" y="-20"/>
      <point x="385" y="49"/>
    </contour>
  </outline>
</glyph>
<glyph name="uniAB54" format="2">
  <advance width="872"/>
  <unicode hex="AB54"/>
  <outline>
    <contour>
      <point x="733" y="-492" type="curve" smooth="yes"/>
      <point x="858" y="-492"/>
      <point x="942" y="-399"/>
      <point x="942" y="-287" type="curve" smooth="yes"/>
      <point x="942" y="-174"/>
      <point x="854" y="-88"/>
      <point x="741" y="-88" type="curve" smooth="yes"/>
      <point x="688" y="-88"/>
      <point x="639" y="-109"/>
      <point x="602" y="-139" type="curve"/>
      <point x="483" y="342" type="line"/>
      <point x="770" y="1100" type="line"/>
      <point x="602" y="1100" type="line"/>
      <point x="422" y="569" type="line"/>
      <point x="354" y="862" type="line" smooth="yes"/>
      <point x="307" y="1042"/>
      <point x="242" y="1114"/>
      <point x="125" y="1114" type="curve" smooth="yes"/>
      <point x="88" y="1114"/>
      <point x="55" y="1108"/>
      <point x="31" y="1100" type="curve"/>
      <point x="31" y="961" type="line"/>
      <point x="47" y="967"/>
      <point x="70" y="971"/>
      <point x="94" y="971" type="curve" smooth="yes"/>
      <point x="150" y="971"/>
      <point x="174" y="918"/>
      <point x="203" y="811" type="curve" smooth="yes"/>
      <point x="317" y="352" type="line"/>
      <point x="-4" y="-492" type="line"/>
      <point x="170" y="-492" type="line"/>
      <point x="383" y="129" type="line"/>
      <point x="467" y="-221" type="line" smooth="yes"/>
      <point x="506" y="-371"/>
      <point x="565" y="-492"/>
    </contour>
    <contour>
      <point x="846" y="-289" type="curve" smooth="yes"/>
      <point x="846" y="-348"/>
      <point x="799" y="-395"/>
      <point x="741" y="-395" type="curve" smooth="yes"/>
      <point x="680" y="-395"/>
      <point x="635" y="-348"/>
      <point x="635" y="-289" type="curve" smooth="yes"/>
      <point x="635" y="-231"/>
      <point x="682" y="-184"/>
      <point x="741" y="-184" type="curve" smooth="yes"/>
      <point x="799" y="-184"/>
      <point x="846" y="-231"/>
    </contour>
  </outline>
</glyph>
<glyph name="uniAB55" format="2">
  <advance width="805"/>
  <unicode hex="AB55"/>
  <outline>
    <contour>
      <point x="-111" y="-492" type="line"/>
      <point x="39" y="-492" type="line" smooth="yes"/>
      <point x="156" y="-492"/>
      <point x="205" y="-420"/>
      <point x="266" y="-240" type="curve" smooth="yes"/>
      <point x="387" y="123" type="line"/>
      <point x="471" y="-227" type="line" smooth="yes"/>
      <point x="522" y="-422"/>
      <point x="588" y="-492"/>
      <point x="705" y="-492" type="curve" smooth="yes"/>
      <point x="743" y="-492"/>
      <point x="774" y="-487"/>
      <point x="801" y="-477" type="curve"/>
      <point x="801" y="-338" type="line"/>
      <point x="782" y="-344"/>
      <point x="762" y="-348"/>
      <point x="737" y="-348" type="curve" smooth="yes"/>
      <point x="676" y="-348"/>
      <point x="653" y="-307"/>
      <point x="616" y="-162" type="curve" smooth="yes"/>
      <point x="494" y="342" type="line"/>
      <point x="782" y="1100" type="line"/>
      <point x="612" y="1100" type="line"/>
      <point x="432" y="569" type="line"/>
      <point x="362" y="862" type="line" smooth="yes"/>
      <point x="319" y="1042"/>
      <point x="252" y="1114"/>
      <point x="137" y="1114" type="curve" smooth="yes"/>
      <point x="98" y="1114"/>
      <point x="63" y="1108"/>
      <point x="41" y="1100" type="curve"/>
      <point x="41" y="961" type="line"/>
      <point x="57" y="967"/>
      <point x="80" y="971"/>
      <point x="102" y="971" type="curve" smooth="yes"/>
      <point x="160" y="971"/>
      <point x="184" y="918"/>
      <point x="213" y="811" type="curve" smooth="yes"/>
      <point x="328" y="352" type="line"/>
      <point x="125" y="-188" type="line" smooth="yes"/>
      <point x="70" y="-334"/>
      <point x="53" y="-348"/>
      <point x="31" y="-348" type="curve" smooth="yes"/>
      <point x="20" y="-348"/>
      <point x="10" y="-340"/>
      <point x="10" y="-317" type="curve" smooth="yes"/>
      <point x="10" y="-133" type="line"/>
      <point x="-111" y="-133" type="line"/>
    </contour>
  </outline>
</glyph>
<glyph name="combiningconjoiningmacron" format="2">
  <unicode hex="FE26"/>
  <anchor x="-2" y="1100" name="_top"/>
  <outline>
    <contour>
      <point x="-500" y="1425" type="line"/>
      <point x="-500" y="1294" type="line"/>
      <point x="498" y="1294" type="line"/>
      <point x="498" y="1425" type="line"/>
    </contour>
  </outline>
</glyph>
<glyph name="uniFE2E" format="2">
  <unicode hex="FE2E"/>
  <anchor x="-2" y="1100" name="_top"/>
  <outline>
    <contour>
      <point x="-78" y="1260" type="curve"/>
      <point x="270" y="1260" type="line"/>
      <point x="270" y="1382" type="line"/>
      <point x="-154" y="1382" type="line" smooth="yes"/>
      <point x="-233" y="1382"/>
      <point x="-272" y="1350"/>
      <point x="-272" y="1274" type="curve" smooth="yes"/>
      <point x="-272" y="1204"/>
      <point x="-238" y="1167"/>
      <point x="-174" y="1167" type="curve" smooth="yes"/>
      <point x="-117" y="1167"/>
      <point x="-86" y="1194"/>
    </contour>
  </outline>
</glyph>
<glyph name="afii10066.loclSRB" format="2">
  <advance width="920"/>
  <outline>
    <contour>
      <point x="797" y="1567" type="line"/>
      <point x="375" y="1516"/>
      <point x="182" y="1434"/>
      <point x="182" y="1219" type="curve" smooth="yes"/>
      <point x="182" y="1075"/>
      <point x="281" y="1001"/>
      <point x="362" y="940" type="curve"/>
      <point x="211" y="864"/>
      <point x="86" y="694"/>
      <point x="86" y="449" type="curve" smooth="yes"/>
      <point x="86" y="143"/>
      <point x="233" y="-20"/>
      <point x="457" y="-20" type="curve" smooth="yes"/>
      <point x="684" y="-20"/>
      <point x="831" y="158"/>
      <point x="831" y="457" type="curve" smooth="yes"/>
      <point x="831" y="719"/>
      <point x="717" y="864"/>
      <point x="551" y="985" type="curve" smooth="yes"/>
      <point x="418" y="1081"/>
      <point x="330" y="1120"/>
      <point x="330" y="1221" type="curve" smooth="yes"/>
      <point x="330" y="1352"/>
      <point x="510" y="1380"/>
      <point x="815" y="1417" type="curve"/>
    </contour>
    <contour>
      <point x="465" y="860" type="curve"/>
      <point x="567" y="774"/>
      <point x="664" y="670"/>
      <point x="664" y="455" type="curve" smooth="yes"/>
      <point x="664" y="229"/>
      <point x="582" y="123"/>
      <point x="457" y="123" type="curve" smooth="yes"/>
      <point x="346" y="123"/>
      <point x="256" y="229"/>
      <point x="256" y="449" type="curve" smooth="yes"/>
      <point x="256" y="702"/>
      <point x="358" y="807"/>
    </contour>
  </outline>
</glyph>
<glyph name="caroncomb.sc" format="2">
  <advance width="854"/>
  <anchor x="426" y="1169" name="_top"/>
  <anchor x="430" y="1616" name="top"/>
  <outline>
    <contour>
      <point x="672" y="1616" type="line"/>
      <point x="563" y="1616" type="line"/>
      <point x="514" y="1554"/>
      <point x="471" y="1479"/>
      <point x="424" y="1403" type="curve"/>
      <point x="387" y="1475"/>
      <point x="340" y="1550"/>
      <point x="291" y="1616" type="curve"/>
      <point x="178" y="1616" type="line"/>
      <point x="178" y="1595" type="line"/>
      <point x="240" y="1485"/>
      <point x="291" y="1376"/>
      <point x="324" y="1288" type="curve"/>
      <point x="528" y="1288" type="line"/>
      <point x="565" y="1380"/>
      <point x="629" y="1513"/>
      <point x="672" y="1595" type="curve"/>
    </contour>
  </outline>
</glyph>
<glyph name="five.lf" format="2">
  <advance width="848"/>
  <outline>
    <contour>
      <point x="418" y="899" type="curve" smooth="yes"/>
      <point x="371" y="899"/>
      <point x="315" y="893"/>
      <point x="260" y="881" type="curve"/>
      <point x="293" y="1307" type="line"/>
      <point x="682" y="1307" type="line"/>
      <point x="682" y="1462" type="line"/>
      <point x="150" y="1462" type="line"/>
      <point x="106" y="786" type="line"/>
      <point x="172" y="721" type="line"/>
      <point x="236" y="741"/>
      <point x="295" y="754"/>
      <point x="354" y="754" type="curve" smooth="yes"/>
      <point x="502" y="754"/>
      <point x="586" y="655"/>
      <point x="586" y="465" type="curve" smooth="yes"/>
      <point x="586" y="283"/>
      <point x="508" y="129"/>
      <point x="342" y="129" type="curve" smooth="yes"/>
      <point x="256" y="129"/>
      <point x="168" y="160"/>
      <point x="94" y="211" type="curve"/>
      <point x="94" y="41" type="line"/>
      <point x="162" y="0"/>
      <point x="248" y="-20"/>
      <point x="352" y="-20" type="curve" smooth="yes"/>
      <point x="618" y="-20"/>
      <point x="760" y="178"/>
      <point x="760" y="471" type="curve" smooth="yes"/>
      <point x="760" y="725"/>
      <point x="631" y="899"/>
    </contour>
  </outline>
</glyph>
<glyph name="one.osf" format="2">
  <advance width="635"/>
  <outline>
    <contour>
      <point x="479" y="0" type="line"/>
      <point x="479" y="1122" type="line"/>
      <point x="332" y="1122" type="line"/>
      <point x="23" y="797" type="line"/>
      <point x="129" y="694" type="line"/>
      <point x="258" y="831" type="line"/>
      <point x="281" y="856"/>
      <point x="301" y="883"/>
      <point x="319" y="907" type="curve"/>
      <point x="313" y="805"/>
      <point x="309" y="709"/>
      <point x="309" y="618" type="curve" smooth="yes"/>
      <point x="309" y="0" type="line"/>
    </contour>
  </outline>
</glyph>
<glyph name="s.sc" format="2">
  <advance width="680"/>
  <anchor x="340" y="0" name="bottom"/>
  <anchor x="340" y="1169" name="top"/>
  <anchor x="639" y="1169" name="topright"/>
  <outline>
    <contour>
      <point x="627" y="324" type="curve" smooth="yes"/>
      <point x="627" y="514"/>
      <point x="537" y="588"/>
      <point x="408" y="655" type="curve" smooth="yes"/>
      <point x="283" y="723"/>
      <point x="231" y="756"/>
      <point x="231" y="877" type="curve" smooth="yes"/>
      <point x="231" y="985"/>
      <point x="281" y="1040"/>
      <point x="360" y="1040" type="curve" smooth="yes"/>
      <point x="422" y="1040"/>
      <point x="494" y="1016"/>
      <point x="565" y="973" type="curve"/>
      <point x="618" y="1114" type="line"/>
      <point x="549" y="1157"/>
      <point x="465" y="1186"/>
      <point x="360" y="1186" type="curve" smooth="yes"/>
      <point x="190" y="1186"/>
      <point x="63" y="1073"/>
      <point x="63" y="870" type="curve" smooth="yes"/>
      <point x="63" y="682"/>
      <point x="139" y="606"/>
      <point x="279" y="532" type="curve" smooth="yes"/>
      <point x="395" y="471"/>
      <point x="459" y="428"/>
      <point x="459" y="309" type="curve" smooth="yes"/>
      <point x="459" y="193"/>
      <point x="395" y="131"/>
      <point x="309" y="131" type="curve" smooth="yes"/>
      <point x="229" y="131"/>
      <point x="137" y="158"/>
      <point x="57" y="203" type="curve"/>
      <point x="57" y="41" type="line"/>
      <point x="129" y="2"/>
      <point x="197" y="-16"/>
      <point x="319" y="-16" type="curve" smooth="yes"/>
      <point x="518" y="-16"/>
      <point x="627" y="121"/>
    </contour>
  </outline>
</glyph>
<glyph name="uni030003060308" format="2">
  <anchor x="322" y="1100" name="_top"/>
  <anchor x="326" y="1890" name="top"/>
  <outline>
    <contour>
      <point x="561" y="1710" type="curve"/>
      <point x="471" y="1710" type="line"/>
      <point x="461" y="1602"/>
      <point x="410" y="1569"/>
      <point x="322" y="1569" type="curve" smooth="yes"/>
      <point x="233" y="1569"/>
      <point x="180" y="1599"/>
      <point x="172" y="1710" type="curve"/>
      <point x="82" y="1710" type="line"/>
      <point x="88" y="1534"/>
      <point x="164" y="1456"/>
      <point x="319" y="1456" type="curve" smooth="yes"/>
      <point x="473" y="1456"/>
      <point x="551" y="1536"/>
    </contour>
    <contour>
      <point x="182" y="1413" type="curve" smooth="yes"/>
      <point x="133" y="1413"/>
      <point x="106" y="1382"/>
      <point x="106" y="1311" type="curve" smooth="yes"/>
      <point x="106" y="1245"/>
      <point x="133" y="1212"/>
      <point x="182" y="1212" type="curve" smooth="yes"/>
      <point x="227" y="1212"/>
      <point x="256" y="1245"/>
      <point x="256" y="1311" type="curve" smooth="yes"/>
      <point x="256" y="1378"/>
      <point x="227" y="1413"/>
    </contour>
    <contour>
      <point x="463" y="1413" type="curve" smooth="yes"/>
      <point x="412" y="1413"/>
      <point x="387" y="1382"/>
      <point x="387" y="1311" type="curve" smooth="yes"/>
      <point x="387" y="1245"/>
      <point x="412" y="1212"/>
      <point x="463" y="1212" type="curve" smooth="yes"/>
      <point x="508" y="1212"/>
      <point x="537" y="1245"/>
      <point x="537" y="1311" type="curve" smooth="yes"/>
      <point x="537" y="1378"/>
      <point x="508" y="1413"/>
    </contour>
    <contour>
      <point x="295" y="1890" type="curve"/>
      <point x="166" y="1890" type="line"/>
      <point x="166" y="1874" type="line"/>
      <point x="197" y="1819"/>
      <point x="268" y="1708"/>
      <point x="305" y="1663" type="curve"/>
      <point x="383" y="1663" type="line"/>
      <point x="383" y="1683" type="line"/>
      <point x="354" y="1745"/>
      <point x="317" y="1825"/>
    </contour>
  </outline>
</glyph>
<glyph name="uni1FCD02C9" format="2">
  <advance width="692"/>
  <anchor x="346" y="1100" name="_top"/>
  <anchor x="350" y="1763" name="top"/>
  <outline>
    <contour>
      <point x="485" y="1749" type="curve"/>
      <point x="336" y="1749" type="line"/>
      <point x="336" y="1729" type="line"/>
      <point x="365" y="1640"/>
      <point x="414" y="1542"/>
      <point x="463" y="1450" type="curve"/>
      <point x="545" y="1450" type="line"/>
      <point x="545" y="1475" type="line"/>
      <point x="522" y="1552"/>
      <point x="500" y="1651"/>
    </contour>
    <contour>
      <point x="557" y="1356" type="line"/>
      <point x="133" y="1356" type="line"/>
      <point x="133" y="1243" type="line"/>
      <point x="557" y="1243" type="line"/>
    </contour>
    <contour>
      <point x="225" y="1763" type="curve" smooth="yes"/>
      <point x="182" y="1763"/>
      <point x="154" y="1731"/>
      <point x="154" y="1677" type="curve" smooth="yes"/>
      <point x="154" y="1624"/>
      <point x="178" y="1595"/>
      <point x="223" y="1595" type="curve"/>
      <point x="223" y="1550"/>
      <point x="188" y="1505"/>
      <point x="143" y="1501" type="curve"/>
      <point x="143" y="1438" type="line"/>
      <point x="250" y="1444"/>
      <point x="313" y="1534"/>
      <point x="313" y="1634" type="curve" smooth="yes"/>
      <point x="313" y="1718"/>
      <point x="276" y="1763"/>
    </contour>
  </outline>
</glyph>
<glyph name="uni1FCD0306" format="2">
  <advance width="641"/>
  <anchor x="324" y="1100" name="_top"/>
  <anchor x="328" y="1804" name="top"/>
  <outline>
    <contour>
      <point x="326" y="1198" type="curve" smooth="yes"/>
      <point x="469" y="1198"/>
      <point x="543" y="1282"/>
      <point x="557" y="1438" type="curve"/>
      <point x="465" y="1438" type="line"/>
      <point x="451" y="1348"/>
      <point x="416" y="1307"/>
      <point x="324" y="1307" type="curve" smooth="yes"/>
      <point x="236" y="1307"/>
      <point x="199" y="1350"/>
      <point x="182" y="1438" type="curve"/>
      <point x="88" y="1438" type="line"/>
      <point x="100" y="1282"/>
      <point x="170" y="1198"/>
    </contour>
    <contour>
      <point x="121" y="1485" type="line"/>
      <point x="229" y="1489"/>
      <point x="291" y="1575"/>
      <point x="291" y="1675" type="curve" smooth="yes"/>
      <point x="291" y="1761"/>
      <point x="254" y="1804"/>
      <point x="203" y="1804" type="curve" smooth="yes"/>
      <point x="160" y="1804"/>
      <point x="131" y="1769"/>
      <point x="131" y="1720" type="curve" smooth="yes"/>
      <point x="131" y="1665"/>
      <point x="156" y="1638"/>
      <point x="201" y="1636" type="curve"/>
      <point x="201" y="1593"/>
      <point x="164" y="1550"/>
      <point x="121" y="1546" type="curve"/>
    </contour>
    <contour>
      <point x="438" y="1493" type="curve"/>
      <point x="516" y="1493" type="line"/>
      <point x="516" y="1518" type="line"/>
      <point x="492" y="1595"/>
      <point x="471" y="1694"/>
      <point x="459" y="1790" type="curve"/>
      <point x="307" y="1790" type="line"/>
      <point x="307" y="1769" type="line"/>
      <point x="336" y="1683"/>
      <point x="385" y="1583"/>
    </contour>
  </outline>
</glyph>
<glyph name="uogonek.sc" format="2">
  <advance width="877"/>
  <anchor x="438" y="-459" name="bottom"/>
  <anchor x="438" y="1169" name="top"/>
  <outline>
    <contour>
      <point x="492" y="-233" type="curve"/>
      <point x="492" y="-147"/>
      <point x="537" y="-76"/>
      <point x="686" y="94" type="curve"/>
      <point x="543" y="33" type="line"/>
      <point x="416" y="-68"/>
      <point x="348" y="-162"/>
      <point x="348" y="-262" type="curve"/>
      <point x="348" y="-387"/>
      <point x="432" y="-459"/>
      <point x="557" y="-459" type="curve"/>
      <point x="608" y="-459"/>
      <point x="649" y="-451"/>
      <point x="682" y="-440" type="curve"/>
      <point x="682" y="-317" type="line"/>
      <point x="657" y="-326"/>
      <point x="623" y="-332"/>
      <point x="590" y="-332" type="curve"/>
      <point x="524" y="-332"/>
      <point x="492" y="-301"/>
    </contour>
    <component base="u.sc"/>
  </outline>
</glyph>
